<?xml version="1.0" encoding="UTF-8"?>
<svg width="475px" height="182px" viewBox="0 0 475 182" version="1.1" xmlns="http://www.w3.org/2000/svg" xmlns:xlink="http://www.w3.org/1999/xlink">
    <!-- Generator: Sketch 45 (43475) - http://www.bohemiancoding.com/sketch -->
    <title>pulse-line</title>
    <desc>Created with Sketch.</desc>
    <defs>
        <linearGradient x1="0.25781251%" y1="49.7500002%" x2="101.257813%" y2="49.7500002%" id="linearGradient-1">
            <stop stop-color="#0000FF" offset="0%"></stop>
            <stop stop-color="#0000FF" offset="23.832111%"></stop>
            <stop stop-color="#008000" offset="24.018975%"></stop>
            <stop stop-color="#008000" offset="65.1231432%"></stop>
            <stop stop-color="#FFA500" offset="65.9359056%"></stop>
            <stop stop-color="#FFA500" offset="80.6080912%"></stop>
            <stop stop-color="#F42A04" offset="81.3979415%"></stop>
            <stop stop-color="#F42A04" offset="88.3888712%"></stop>
            <stop stop-color="#F42A04" offset="100%"></stop>
        </linearGradient>
    </defs>
    <g id="Page-1" stroke="none" stroke-width="1" fill="none" fill-rule="evenodd">
        <g id="River" transform="translate(52.000000, 126.000000)" stroke="#93D1FF">
            <polygon id="James-River" fill="#4A90E2" points="88.8896484 29.4980469 104.78418 31.9921875 106.117188 29.0830078 108.12793 31.8330078 124.776367 35.8496094 134.417969 34.4296875 140.952148 37.3681641 143.393555 40.1865234 150.308594 42.1826172 164.166016 39.9990234 178.3125 35.5048828 182.925781 33.3857422 186.966797 33.0615234 193.916016 28.1875 199.030273 19.0439453 214.662109 11.0166016 233.790039 4.61230469 247.321289 4.50390625 258.146484 2.87988281 266.616211 0.8359375 275.914062 3.43945313 292.443359 8.34570312 315.672852 14.1191406 332.486328 17.6787109 338.967773 21.6660156 341.527344 28.2529297 341.338867 43.84375 343.714844 53.8017578 338.586914 54.4921875 334.849609 42.7148438 333.986328 34.1142578 329.589844 26.0166016 323.353516 23.2460938 316.685547 23.4277344 304.125 20.5869141 294.925781 17.8515625 289.892578 16.0595703 272.041016 19.0439453 257.404297 21.7919922 244.885742 16.0595703 237.78418 17.2753906 227.865234 27.9560547 216.40625 34.2460937 225.317383 25.5537109 226.594727 18.7412109 228.977539 15.3789063 220.061523 17.2753906 211.140625 23.9580078 203.928711 29.5068359 200.882812 35.6513672 201.625977 38.9736328 209.381836 36.96875 213.572266 34.4296875 207.663086 40.9160156 200.625977 44.3828125 192.375 48.8896484 185.68457 50.2871094 189.660156 46.0078125 175.22168 46.9228516 166.204102 48.2431641 153.552734 51.8515625 160.717773 53.8232422 173.839844 51.3369141 186.438477 47.5556641 183.621094 50.3632812 167.272461 55.0761719 136.661133 54.1708984 121.814453 51.7666016 115.631836 48.1035156 108.693359 46.7148438 99.6269531 51.8095703 91.6923828 51.9726562 88.5859375 47.5654297"></polygon>
            <polygon id="Path" fill="#4A90E2" points="89.0068359 29.6396484 63.7265625 27.8300781 31.6523438 33.1806641 24.7070312 33.4492188 0.9296875 53.5712891 34.0429688 53.8662109 51.1943359 45.6269531 67.0302734 45.2851562 81.4140625 46.3476562 88.1279297 48.0712891"></polygon>
            <polyline id="Path-56" points="88.7373047 29.1943359 63.3251953 27.7148438 24.7998047 33.9296875 0.891601562 53.8085938"></polyline>
            <polyline id="Path-59" points="19.2490234 52.7724609 33.6152344 41.9736328 66.375 37.7490234 91.4863281 40.1240234 102.679688 43.2382812 118.175781 45.6513672 130.489258 47.0429688 146.267578 51.0458984"></polyline>
            <polyline id="Path-60" points="33.5292969 53.6474609 50.8837891 44.9140625 73.3408203 44.7382812 87.8408203 46.7324219"></polyline>
            <polyline id="Path-62" points="232.202148 14.6845703 246.449219 12.5615234 256.773438 16.0927734 265.253906 18.1806641 280.301758 12.9345703"></polyline>
            <polyline id="Path-61" points="192.27832 42.7099609 197.541992 38.6494141 200.549805 32.3232422 205.458984 24.4931641 211.541016 21.6601562"></polyline>
            <polyline id="Path-58" points="11.53125 53.3134766 27.3300781 39.0146484 48.8369141 35.7324219 62.1347656 33.5751953 82.0332031 34.2304688 105.320312 39.1650391 115.432617 40.6640625 121.345703 42.9902344 133.12793 40.9179688 141.457031 45.8056641 150.168945 47.6171875 164.989258 45.5625 183.919922 43.0712891 196.264648 33.9414062 203.899414 23.5947266 216.28418 16.8369141 236.754883 9.46972656 266.707031 7.54785156 294.861328 12.4248047 325.466797 21.28125 331.702148 25.0166016 336.944336 38.9707031 338.65332 49.1953125"></polyline>
            <polyline id="Path" points="4.81738281 54.1787109 25.2480469 37.1396484 38.953125 34.1992188 63.0712891 29.8359375 82.5185547 31.6630859 100.40918 34.4628906 128.111328 38.9189453 134.261719 37.640625 139.858398 42.2060547 146.205078 44.6943359 184.035156 40.8339844 193.935547 31.1484375 201.446289 21.1269531 218.967773 12.5234375 240.625977 6.52246094 265.59668 5.41503906 292.519531 10.0625 320.416016 16.1914062 332.899414 22.5615234 340.134766 42.5654297 340.242188 51.0429688"></polyline>
        </g>
        <g id="Streets" transform="translate(5.000000, 1.000000)" stroke="#B9B9B9">
            <path d="M240.5,105.5 L261.5,100.5" id="Line"></path>
            <path d="M252.5,98.5 L260.5,131.5" id="Line"></path>
            <path d="M269.5,128.5 L308.5,60.5" id="Line"></path>
            <path d="M257.5,133.5 L269.5,128.5" id="Line"></path>
            <path d="M256.5,97.5 L264.5,130.5" id="Line"></path>
            <path d="M260.5,96.5 L268.5,132.5" id="Line"></path>
            <path d="M238.5,114.5 L264.5,108.5" id="Line"></path>
            <path d="M251.5,116.5 L263.5,113.5" id="Line"></path>
            <path d="M253.5,120.5 L270.5,116.5" id="Line"></path>
            <path d="M270.5,116.5 L275.5,119.5" id="Line"></path>
            <path d="M254.5,124.5 L266.5,121.5" id="Line"></path>
            <path d="M249.5,99.5 L255.5,128.5" id="Line"></path>
            <path d="M261.5,96.5 L315.5,113.5" id="Line"></path>
            <path d="M262.5,100.5 L313.5,116.5" id="Line"></path>
            <path d="M263.5,105.5 L312.5,119.5" id="Line"></path>
            <path d="M318.5,109.5 L310.5,122.5" id="Line"></path>
            <path d="M318.5,109.5 L0.5,13.5" id="Line"></path>
            <path d="M270.5,95.5 L266.5,101.5" id="Line"></path>
            <path d="M266.5,94.5 L264.5,97.5" id="Line"></path>
            <path d="M273.5,96.5 L267.5,106.5" id="Line"></path>
            <path d="M277.5,96.5 L270.5,107.5" id="Line"></path>
            <polyline id="Path-2" points="268.170898 129.489746 268.905273 138.775391 268.290039 146.852051 267.205078 154.675781 266.118164 164.267578 267.623535 167.358398 270.902344 170.583496 280.315918 179.331055"></polyline>
            <polyline id="Path-3" points="308.992676 106.872559 294.099121 130.118652 286.355957 144.740234 285.46582 147.000977 285.813477 150.342773 287.861816 152.580078 291.138184 154.453125 317.59375 170.343262 320.118164 175.303223 321.742188 177.45166 325.743652 179.29541"></polyline>
            <polyline id="Path-4" points="194.870117 0.493164062 196.444336 4.68261719 190.822266 23 181.084961 61.2597656 177.047852 76.8037109 173.074219 91.0078125 167.865234 111.986328 166.054688 117.818359"></polyline>
            <polyline id="Path-5" points="196.707031 4.56445312 217.048828 67.1015625 220.817383 79.5214844"></polyline>
            <polyline id="Path-6" points="197.595703 4.84960938 203.670898 7.69628906 211.736328 9.046875 218.549805 10.0615234 222.472656 13.3427734 226.774414 15.8701172 238.805664 13.2705078 252.90332 10.5703125 306.68457 0.486328125"></polyline>
            <polyline id="Path-7" points="234.880859 0.228515625 238.330078 10.125 241.386719 20.0361328 247.853516 36.3818359 254.584961 50.9501953 264.353516 58.6054688 270.094727 62.9316406 270.460938 65.3066406 277.927734 67.0263672 280.863281 68.9462891 285.942383 78.8808594 275.592773 99.8076172"></polyline>
            <polyline id="Path-8" points="0.392578125 64.8583984 3.59765625 70.1992188 30.6191406 62.7832031 44.2333984 65.859375 101.206055 77.2197266 130.571289 83.0615234 168.307617 86.8183594 204.433594 90.5166016 235.641602 93.7861328 245.852539 91.9101562 251.865234 93.7958984 254.358398 90.0957031"></polyline>
            <polyline id="Path-9" points="0.373046875 31.4541016 39.3271484 45.8359375 76.8984375 54.6513672 129.604492 67.1113281 148.388672 71.4853516 166.097656 71.3066406 173.694336 70.9179688 184.320312 72.7841797 210.436523 81.1865234 217.954102 84.2734375 224.987305 86.1728516 231.716797 90.625 244.425781 92.3291016"></polyline>
            <polyline id="Path-10" points="134.256836 75.0458984 190.640625 81.078125 210.113281 83.4384766 214.151367 83.2001953 209.934398 99.2567451 206.49707 112.344727 238.236328 114.782227 242.232422 100.371094 237.716797 101.791992"></polyline>
            <polyline id="Path-11" points="238.353516 115.267578 236.916992 117.883789 234.454102 121.125977 231.397461 124.076172 230.180664 128.317383 228.013672 131.833008 223.989258 133.520508 192.708008 141.647461 192.042969 118.6875 177.773438 117.621094 185.123047 92.7041016 236.303711 97.8544922 233.869141 105.206055 187.796875 101.15332 183.916016 114.673828 209.300781 117.661133 204.77832 135.162109 195.830078 134.171875 198.979492 122.067383 225.988281 124.755859 229.920898 111.085937 232.261719 101.287109 128.639648 91.8125 129.766602 87.1953125 177.041016 92.0654297 179.117188 83.3349609 132.142578 79.453125 155.886719 39.7841797 163.817383 29.9755859"></polyline>
            <polyline id="Path-12" points="3.828125 70.4375 9.73242188 80.2011719 13.2011719 80.578125 39.9863281 77.6425781 63.1083984 82.3476562 118.740234 93.8603516 131.644531 95.9023438 166.345703 99.2734375 207.931641 103.048828 238.599609 106.52832 244.556641 104.664062 244.240234 99.9960938 237.107422 101.844727 232.160949 101.409678 229.423828 101.168945"></polyline>
            <polyline id="Path-13" points="248.669922 0.397460938 261.077148 30.4169922 264.449219 38.3496094 270.236328 44.5703125 271.9375 54.3701172 281.516602 69.5019531 286.647461 79.3085938 317.443359 89.0458984 326.609375 90.9931641 335.399414 93.4052734 346.795898 91.4023438 353.242188 89.5595703 360.635742 91.8398438 363.479492 92.6171875 381.115234 87.7900391 384.412109 88.5419922 386.699219 84.3974609 402.041016 88.8242188 417.189453 93.0507813 421.051758 95.1425781 434.545898 91.0107422 446.189453 97.4853516 460.78418 99.0390625 467.006836 98.3886719"></polyline>
            <polyline id="Path-15" points="286.691406 75.2861328 291.453125 77.0585938 273.943604 107.913086 277.005127 109.289795 294.417236 77.8950195 301.17749 79.9177246 282.647705 112.986572 285.799561 114.159668 304.648438 80.625 307.938965 81.9216309 288.872314 115.319824 295.709473 117.404541 314.145508 83.6123047 317.359619 84.6374512 301.276855 113.511963 301.803711 116.060059 302.734619 116.716553 320.625488 85.8342285 323.65625 86.7939453 319.252441 94.8557129 322.398926 95.5241699 325.143799 91.2092285 322.884033 95.6730957 325.354492 96.6313477 328.192871 91.9926758 325.910889 96.7375488 327.119141 97.3342285"></polyline>
            <polyline id="Path-16" points="314.726807 83.4936523 317.053223 79.0617676 320.203125 80.0773926 325.021973 84.3718262 324.127686 86.2858887 322.959961 86.6220703 286.212158 75.4953613 287.251221 73.8056641 304.280029 73.8952637 306.870361 69.6628418 302.840576 68.3339844 292.851253 68.0717031 289.264893 67.9775391 287.752441 70.824707 291.543701 70.9787598 292.884521 68.5705566 296.297607 68.6235352 294.861572 70.7922363 304.876709 71.9101562"></polyline>
            <path d="M236.5,97.5 L251.5,94.5" id="Line"></path>
            <path d="M243.5,93.5 L243.5,95.5" id="Line"></path>
            <polyline id="Path-17" points="257.822998 66.5683594 247.18335 63.2324219 246.217041 63.7661133 232.439697 86.623291 230.74292 89.5012207 229.400635 89.7626953 225.617676 103.918213 226.179443 105.82666 225.67749 107.696045 230.873047 108.583984 231.532715 105.001221 229.534424 104.8396 233.349365 91.043457 234.773926 91.0112305 238.011475 106.570557 246.274658 104.08667 247.781982 112.169434 242.011719 113.581787 236.636963 112.022705 223.475098 110.595947 216.111572 109.877197 207.655029 108.96167 206.480469 112.325928 196.717041 110.857422 185.737549 109.761719 184.843018 111.751221 184.669678 112.39917 210.223389 114.860107 209.472168 117.322754 209.075684 118.538086 227.353516 120.231689 226.740234 122.257568 192.007812 118.926758 192.373779 127.652832 226.12207 130.772217"></polyline>
            <polyline id="Path-19" points="186.844971 118.140381 189.632324 108.345703 194.168457 107.811035 191.221436 118.429443 195.202393 119.26709 198.414063 107.990479 202.94873 108.567139 198.867676 122.48999 193.943848 140.963623 193.7854 160.885254 194.317627 159.495117 197.049316 158.911133 197.166748 140.618164 200.587646 139.538086 200.363281 158.114502 203.697998 157.365967 203.833496 138.536621 204.76416 134.996094 207.280518 125.900391 229.943848 128.444824"></polyline>
            <polyline id="Path-20" points="192.377441 139.254395 192.061035 141.533691 190.861572 142.483643 190.8125 145.799316 200.462646 143.17749 200.652588 144.938965 207.115451 143.550658 210.640381 142.793457 210.509521 148.82373 190.478271 152.998291 190.525879 156.5625 210.694824 152.181641 210.204834 149.371582 207.135742 149.138428"></polyline>
            <path d="M190.5,149.5 L200.5,147.5" id="Line"></path>
            <path d="M207.246338,143.708252 L207.120605,159.641846" id="Path-21"></path>
            <polyline id="Path-18" points="259.386719 26.4492188 228.017578 82.9033203 224.53125 90.6621094 214.529297 134.524414 213.90332 136.165771 216.857422 135.384033 218.476318 130.134277 221.437012 130.281494 220.344971 134.235596 223.607178 133.535889 226.212891 124.656494 231.002686 125.541748 237.153564 117.5896 228.797852 116.842773 228.304932 116.023926 216.065674 114.895264 216.614014 113.042725"></polyline>
            <polyline id="Path-23" points="175.928467 66.7722168 173.61792 71.2211914 172.582275 74.934082 168.531738 74.7199707 159.622314 107.008789 165.108398 107.861328 167.439941 99.2189941 166.171875 99.1420898 169.398682 86.8837891 173.996338 87.4001465 177.229004 75.7102051 189.646973 76.7998047 185.156006 92.5783691 189.62793 93.1286621 194.036133 75.8525391 197.994385 77.1552734 190.538086 104.708252 195.135742 104.864502 202.044678 78.3635254 205.946533 79.6455078 199.296387 105.000488 199.492188 105.437012 203.95752 105.811035 210.063232 80.9829102 212.164551 77.5856934 218.279541 79.9919434 217.212402 83.4418945 217.677734 84.2470703 212.883301 103.492432 212.515869 106.415527 216.936768 106.993652 221.885742 85.4838867 226.287598 86.7644043 227.072266 85.3659668 240.425537 89.4025879 238.838135 92.682373 240.944824 100.330811 250.416016 99.0876465 261.060303 96.5068359 260.53833 92.3000488 264.738525 109.03125 271.425049 110.796875 276.48999 112.987305 281.82373 114.511963 279.917236 117.702148 282.781006 118.701172 284.909912 115.330322 288.222412 116.613037 285.636719 121.415283 286.52417 125.103027 291.52002 124.109619 292.644043 121.442627 289.656006 120.73877 291.324219 117.571045 288.898682 116.847412 294.680908 118.66626 292.935303 121.146729 291.841309 124.5271 294.41748 124.906982 297.644043 125.836426 298.725098 126.110107 302.087646 125.651123 304.527832 121.270508 295.144287 118.715576 307.646484 122.48291 306.550537 124.351807"></polyline>
            <polyline id="Path-24" points="262.708252 104.988525 251.329102 107.683594 244.213379 109.095215 239.738281 109.395752 231.189941 108.318115 224.5 107.613525 223.143799 106.424072 220.594238 106.189453 216.435547 107.165283 208.159912 106.19165 203.895996 105.782471 187.042969 104.085693 189.469238 92.9821777 191.628418 85.1149902 230.849365 89.3322754 183.192383 84.4313965 176.656982 108.234619 172.447266 108.517334 176.762451 92.1640625 180.175293 79.3552246 184.782959 69.3208008 188.651855 70.6901855 185.063232 76.901123"></polyline>
            <polygon id="Path-25" points="238.624512 69.7905273 319.274902 95.0102539 322.040527 89.9223633 216.784668 57.8862305 210.397461 57.3574219 203.496094 55.3081055 194.971191 48.1708984 191.900879 46.1914062 182.359863 45.7924805 160.286621 34.8852539 155.841797 40.2729492 178.160645 51.5439453 190.690918 56.5854492"></polygon>
            <polyline id="Path-26" points="339.624023 96.5058594 340.092773 101.898438 332.96582 114.539062"></polyline>
            <polyline id="Path-27" points="323.345703 62.6396484 336.94043 61.6982422 339.243164 79.828125 345.027344 101.181641 339.421875 112.199219 342.508789 113.825195 349.585937 100.582031 344.321289 82.8271484 349.970703 80.6416016 354.591797 71.3203125 363.206055 72.8505859 363.491211 77.8369141 355.65625 89.2226562 356.602539 98.4970703 355.174805 105.665039 348.25293 116.481445 362.000977 120.118164 375.693359 95.5341797 417.005859 109.053711 420.077148 105.806641 397.06871 98.6784503 380.019531 93.3964844 365.811523 119.697266 367.705078 121.503906 388.177734 128.000977 407.442383 93.9814453 387.361328 88.3613281 371.429688 118.291992 387.168945 123.428711 402.222656 96.6240234 388.891602 93.1972656 376.44043 115.585938 385.793945 118.925781 393.607422 105.080078"></polyline>
            <polyline id="Path-28" points="337.399414 107.930664 396.367188 126.482422 411.435547 99.6826172 381.236328 91.2109375 345.442383 100.34668 344.549805 102.525391 348.082031 103.839844 346.546875 106.524414 359.518555 110.675781 363.691406 104.009766 407.272461 117.813477 415.787109 123.329102 419.925781 127.211914 419.925781 129.46875 432.772461 135.459961 440.473633 139.1875 446.996094 143.574219 455.797852 149.113281 461.322266 156.699219 465.379883 173.956055 460.554687 174.606445 455.121094 155.46875 450.339844 153.875977 418.750977 161.292969 416.050781 162.453125 412.466797 161.704102 408.652344 158.811523 403.604492 150.924805 400.3125 143.433594 392.266602 139.842773 386.384766 138.261719 382.210937 137.083008 381.095703 132.699219 382.327148 130.442383 376.612305 128.443359 402.920898 81.1835938 400.032227 80.5439453 374.961914 124.589844"></polyline>
            <polyline id="Path-29" points="344.899414 114.93457 351.50293 102.616211 368.734375 97.7900391 422.470703 114.484375"></polyline>
            <polyline id="Path-30" points="358.745117 119.242188 372.261719 95.0371094 371.151367 89.6552734 385.192383 64.7080078"></polyline>
            <polyline id="Path-31" points="359.702148 110.416016 402.972656 124.495117 407.523437 124.566406"></polyline>
            <polyline id="Path-32" points="381.72168 125.595703 411.78418 73.3027344 419.222656 70.0253906"></polyline>
            <polyline id="Path-33" points="360.070312 103.329102 368.890625 101.500977 421.754883 118.619141"></polyline>
            <polyline id="Path-34" points="361.850586 91.8076172 359.56543 106.47168 407.453125 121.893555"></polyline>
            <path d="M371.898438,121.662109 L398.862305,75.3232422" id="Path-35"></path>
            <polyline id="Path-36" points="404.616211 149.583008 413.734375 147.977539 417.390625 147.390625 429.12207 139.250977 436.71875 130.051758 448.140625 120.370117 447.757812 112.289062 455.698242 104.675781 455.375977 98.8808594"></polyline>
            <polyline id="v" points="209.136963 158.11084 207.965332 156.462646 203.803223 157.445557 190.409912 160.273926 190.858643 142.699707 192.453369 141.108398 192.530518 133.721191 195.744629 134.108887 196.582764 131.845459 199.385498 132.200439 198.842285 134.028564 201.905518 135.030029 202.423096 132.577881 205.437988 132.896484 206.098877 130.23584 192.239014 129.08252 192.086426 125.29248 197.565674 126.214111 198.217285 124.790283 207.29541 125.978027 213.046143 126.207764 213.948975 123.765625 210.214111 136.851074"></polyline>
            <polyline id="Path-22" points="412.589844 160.945312 408.756836 143.771484 415.980469 141.387695 417.693359 151.416016 422.150391 153.419922 436.959961 149.649414 438.779297 156.509766 445.151367 155.457031 442.263672 145.005859"></polyline>
            <polyline id="Path-37" points="427.919922 158.856445 425.605469 149.457031 428.957031 148.563477 428.393555 146.326172 435.487305 144.454102 437.227539 150.40918 451.880859 146.956055 464.349609 137.733398"></polyline>
            <polyline id="Path-38" points="431.833008 143.679688 434.995117 157.656738 434.869141 159.992188 435.781738 164.76709 433.90918 166.958984 418.195801 170.564941 415.678711 162.600586 422.573242 160.211914 423.118164 165.375488 430.043945 163.833008 429.658691 161.259766 446.99707 157.040039 452.710938 177.052734"></polyline>
            <polyline id="Path-39" points="408.915527 158.907715 437.511719 152.004883 438.352051 154.061523 453.447266 149.703125 460.491699 144.661133 458.595215 142.772461"></polyline>
            <polyline id="Path-40" points="436.399414 147.23877 428.772949 148.710449 431.37793 158.07959"></polyline>
            <polyline id="Path-41" points="440.613281 156.774902 444.380371 170.558105 446.260254 170.224609 446.852346 172.739235 447.489746 175.446289 452.02832 174.296387 451.326172 171.628418"></polyline>
            <polyline id="Path-42" points="435.693848 162.51709 455.62207 157.848145 455.007324 152.365723 451.561035 147.366211 448.961914 147.890625 454.42041 168.064941 463.910156 165.964844 467.005859 166.904785 466.396484 159.241211 459.320312 157.063965 463.124512 174.369629"></polyline>
            <polyline id="Path-43" points="462.42041 161.049805 443.368652 165.546387 442.557129 163.448242 448.597656 161.939941 449.856445 167.158691 433.422363 170.306641"></polyline>
            <polyline id="Path-44" points="434.277344 133.115723 437.172363 134.419922 439.85498 134.538574 447.947266 140.416016 466.090332 124.422363 463.083984 122.286133 448.189453 135.733398 445.223633 133.965332 460.171387 120.24707 457.37793 118.381836 452.698242 122.447266 466.680176 132.303711 461.949219 136.286133 458.779297 134.131348 463.214355 130.806152"></polyline>
            <polyline id="Path-45" points="411.119629 101.195312 429.201172 92.9790039 430.578613 95.4702148 413.322754 103.438477 417.119141 104.834473 427.068359 100.342773"></polyline>
            <polyline id="Path-46" points="428.322266 112.199707 424.367188 107.137207 418.631836 97.2124023 417.385254 97.7138672 407.282715 94.0683594 412.887695 84.5297852"></polyline>
            <polyline id="Path-47" points="415.067383 99.1938477 418.102539 105.22168 424.398926 107.445801 434.974121 102.806641"></polyline>
            <polyline id="Path-48" points="418.705078 107.713867 411.61377 121.531738 412.578125 124.428711 414.946777 126.422363 415.562988 129.094238 419.843262 129.38623 402.461914 130.808105 402.443848 128.901855 396.854492 126.765137"></polyline>
            <polyline id="Path-49" points="400.659668 126.039551 413.68457 103.310059 409.752441 102.484863 417.449219 90.1655273"></polyline>
            <polyline id="Path-50" points="393.364746 125.442871 414.092285 89.0390625 363.118164 72.5825195 363.682617 76.8676758 386.429199 83.6025391 384.251465 87.2568359 362.167969 79.8837891 360.063965 83.1025391 376.55957 88.4101562"></polyline>
            <path d="M192.684082,131.664062 L202.67041,132.575195" id="Path-51"></path>
            <path d="M204.037598,157.437012 L203.770508,161.572266" id="Path-52"></path>
            <polyline id="Path-53" points="239.983887 114.638184 241.014648 120.030762 237.38623 120.849609 228.00293 119.479492 227.067383 120.193359 222.556641 119.548828 221.803223 123.883301 230.908691 125.481934 233.706055 122.571289 226.978516 122.352051"></polyline>
            <polyline id="Path-54" points="291.71582 76.5668945 293.111816 73.8505859 273.703613 73.4482422 277.943359 81.9521484 274.204102 81.0561523 275.408691 78.7685547 269.107422 76.8330078 274.44873 66.4003906 267.42627 78.3613281 262.844727 77.2260742 265.333496 72.8896484 262.243652 71.8505859 262.82959 70.4868164 259.973633 69.4174805 258.306641 70.2431641 253.606445 74.3178711 249.956543 73.3681641 254.010742 65.3408203 247.369629 63.5053711 246.224121 63.8808594 243.37793 68.5463867 247.042969 70.0664062 246.285645 71.5053711 238.474121 69.8149414 242.754883 62.2143555 240.498047 61.1396484"></polyline>
            <path d="M239.999512,67.6772461 L269.937012,76.8251953" id="Path-55"></path>
            <path d="M263.743164,77.2128906 L254.130859,90.8359375" id="Path-57"></path>
            <path d="M250.268555,73.4697266 L240.224609,89.7529297" id="Path-63"></path>
            <polyline id="Path-64" points="267.766602 78.8115234 261.226562 92.0039062 266.942383 94.1230469 274.478516 80.6943359 277.827148 81.796875 270.322266 96.40625"></polyline>
            <polyline id="Path-65" points="190.489258 44.0751953 174.698242 69.6074219 165.821289 67.8457031 148.748047 68.0566406 149.842773 62.9365234 156.388672 50.1113281 174.539062 27.0537109"></polyline>
            <polyline id="Path-66" points="144.658203 113.866211 148.890625 104.964844 150.819336 93.7109375 152.84668 85.6416016 151.294922 85.2070312 154.945312 67.9404297 154.820312 65.0634766 158.095703 57.5830078 166.180664 44.3525391 178.042969 29.2294922"></polyline>
            <polyline id="Path-67" points="184.038086 35.2783203 172.544922 48.9853516 166.086914 61.6972656 165.173828 71.2353516 160.496094 88.3603516 154.21875 106.131836"></polyline>
            <polyline id="Path-68" points="176.077148 38.7207031 166.916992 49.5380859 161.616211 61.4306641 156.671875 84.9560547"></polyline>
            <polyline id="Path-69" points="149.039062 68.3828125 145.104492 84.2304688 143.370117 85.078125 140.580078 96.6474609 139.3125 103.014648 135.708984 109.605469"></polyline>
            <path d="M178.549805,75.3320312 L137.673828,72.0068359" id="Path-70"></path>
            <polyline id="Path-71" points="258.649414 178.970703 273.400391 167.290039 286.008789 154.193359 315.643555 172.426758 340.496094 145.956055 348.771484 146.319336 363.323242 149.469727 371.432617 159.331055"></polyline>
            <polyline id="Path-72" points="229.744141 178.918945 232.609375 178.035156 237.946289 178.291992 243.125977 175.90332 246.112305 173.888672 251.233398 173.223633 252.885742 172.160156 254.021484 170.02832 258.241211 167.579102 262.793945 171.427734 267.705078 167.641602 276.089844 174.729492 278.842773 172.564453 296.37755 153.698161 297.786133 152.182617"></polyline>
            <polyline id="Path-73" points="275.108398 157.624023 309.168945 178.741211 311.802734 175.905273 282.121094 158.788086 283.257812 156.041016 314.243164 174.625 319.117188 174.563477 329.5 162.807617 307.428711 150.356445"></polyline>
            <polyline id="Path-74" points="288.854492 178.780273 318.610352 147.027344 321.740234 149.049805 293.90332 178.731445"></polyline>
            <polyline id="Path-75" points="273.56543 172.305664 293.447266 151.349609 312.771484 163.571289 326.145508 150.037109 332.214844 154.273438"></polyline>
            <polyline id="Path-76" points="330.75 156.969727 316.698242 148.942383 311.585938 149.126953 282.567383 179.273438"></polyline>
            <polyline id="Path-77" points="329.324219 151.938477 304.106445 178.785156 275.075195 161.689453"></polyline>
        </g>
        <g id="Interstates" transform="translate(128.000000, 1.000000)" stroke-width="2" stroke="#A3A3A3">
            <polygon id="Connector" points="177.531494 73.4824219 181.345947 75.1828613 186.155029 75.4484863 182.131592 73.2976074"></polygon>
            <polygon id="Connector" points="200.119385 66.4301758 200.550781 61.3361816 197.770264 64.6560059 199.080811 66.7438965"></polygon>
            <polyline id="I95" points="181.192383 74.2207031 194.825195 77.1132812 202.576172 80.6132812 204.103516 83.421875 200.442383 73.2714844 199.175781 65.4677734 205.060547 85.6806641 209.50293 90.6035156 212.151367 96.1376953 211.838867 103.919922 206.380859 111.993164 205.234375 114.996094 209.080078 126.793945 212.041016 131.960938"></polyline>
            <polyline id="I64" points="46.2578125 0.608398438 50.2929688 4.70605469 57.5380859 7.93164062 65.9580078 10.7861328 76.6552734 14.65625 84.4609375 18.0703125 94.7089844 18.5576172 99.7470703 20.2099609 104.99707 25.171875 106.758789 33.5556641 107.433594 44.2802734 109.37793 51.0693359 111.547852 54.2509766 116.672852 57.9423828 123.369141 59.4208984 131.675781 61.3515625 138.251953 65.9287109 145.592773 69.4453125 154.926758 71.9990234 164.84375 72.1064453 172.522461 71.9541016 178.750977 73.3173828 183.375 73.3173828 188.958984 72.2783203 195.455078 67.7763672 199.337891 62.8056641 203.546875 53.2802734 210.366211 40.5751953 215.921875 34.3945312 224.076172 29.9804688"></polyline>
            <polyline id="I195" points="30.8837891 0.202148438 33.5732422 7.44628906 30.203125 13.0205078 25.2636719 19.4121094 25.4462891 24.7431641 27.5410156 28.8388672 29.7734375 33.1738281 30.3798828 38.0917969 27.0126953 45.1884766 21.5175781 53.6474609 17.0380859 59.9521484 8.15429688 73.5996094 2.15527344 83.5537109 0.702148438 90.2236328 0.827148438 98.1796875 2.5703125 102.297852 5.06347656 104.008789 15.2226563 103.65332 20.1113281 104.735352 25.5273438 104.825195 32.7607422 108.025391 38.2714844 108.982422 51.5791016 109.544922 64.0410156 108.730469 69.1894531 106.506836 76.7871094 106.234375 119.786133 110.639648 137.904297 107.007813 149.53418 108.49707 172.958984 118.099609 190.670898 121.619141 201.544922 124.21875 210.026367 127.84668 211.836914 131.960937 214.439261 136.645922 227.201172 159.621094 238.740234 179.120117 240.773438 179.555664"></polyline>
            <polyline id="Path-14" points="37.8193359 109.807617 29.4023438 110.356445 18.4697266 118.12793 12.9873047 124.169922 25.7373047 110.324219 32.0195312 107.652344"></polyline>
        </g>
        <g id="Bus-Line-and-Stops" transform="translate(74.000000, 9.000000)">
            <polyline id="Bus-Line" stroke="url(#linearGradient-1)" stroke-width="6" points="324.174805 149.635742 322.194336 146.739258 318.40332 146.34375 315.587891 140.526367 310.189453 135.772461 304.366211 131.84082 300.967773 122.341797 254.408203 107.392578 259.166992 100.041992 259.791992 96.9287109 190.260742 76.25 153.068359 64.6708984 111.926758 52.4677734 106.93457 50.6123047 3.06152344 0.7265625 0.55078125 4.36035156 0.387695312 6.43945312 6.56640625 9.19628906 10.9179688 6.859375"></polyline>
            <g id="Stops" transform="translate(18.000000, 6.000000)">
                <g id="Bus-Stop-Copy-8" transform="translate(74.000000, 35.000000)">
                    <circle id="Oval" fill="#FFFFFF" cx="4" cy="4" r="4"></circle>
                    <circle id="Oval" fill="#417505" cx="4" cy="4" r="2"></circle>
                </g>
                <g id="Bus-Stop-Copy-9" transform="translate(120.000000, 51.000000)">
                    <circle id="Oval" fill="#FFFFFF" cx="4" cy="4" r="4"></circle>
                    <circle id="Oval" fill="#417505" cx="4" cy="4" r="2"></circle>
                </g>
                <g id="Bus-Stop-Copy-18" transform="translate(161.000000, 64.000000)">
                    <circle id="Oval" fill="#FFFFFF" cx="4" cy="4" r="4"></circle>
                    <circle id="Oval" fill="#417505" cx="4" cy="4" r="2"></circle>
                </g>
                <g id="Bus-Stop-Copy-19" transform="translate(192.000000, 73.000000)">
                    <circle id="Oval" fill="#FFFFFF" cx="4" cy="4" r="4"></circle>
                    <circle id="Oval" fill="#F5A623" cx="4" cy="4" r="2"></circle>
                </g>
                <g id="Bus-Stop-Copy-20" transform="translate(210.000000, 79.000000)">
                    <circle id="Oval" fill="#FFFFFF" cx="4" cy="4" r="4"></circle>
                    <circle id="Oval" fill="#F5A623" cx="4" cy="4" r="2"></circle>
                </g>
                <g id="Bus-Stop-Copy-21" transform="translate(230.000000, 85.000000)">
                    <circle id="Oval" fill="#FFFFFF" cx="4" cy="4" r="4"></circle>
                    <circle id="Oval" fill="#F5A623" cx="4" cy="4" r="2"></circle>
                </g>
                <g id="Bus-Stop-Copy-22" transform="translate(242.000000, 100.000000)">
                    <circle id="Oval" fill="#FFFFFF" cx="4" cy="4" r="4"></circle>
                    <circle id="Oval" fill="#F5A623" cx="4" cy="4" r="2"></circle>
                </g>
                <g id="Bus-Stop-Copy-23" transform="translate(268.000000, 109.000000)">
                    <circle id="Oval" fill="#FFFFFF" cx="4" cy="4" r="4"></circle>
                    <circle id="Oval" fill="#EB0000" cx="4" cy="4" r="2"></circle>
                </g>
                <g id="Bus-Stop-Copy-24" transform="translate(291.000000, 128.000000)">
                    <circle id="Oval" fill="#FFFFFF" cx="4" cy="4" r="4"></circle>
                    <circle id="Oval" fill="#EB0000" cx="4" cy="4" r="2"></circle>
                </g>
                <g id="Bus-Stop-Copy-25" transform="translate(299.000000, 137.000000)">
                    <circle id="Oval" fill="#FFFFFF" cx="4" cy="4" r="4"></circle>
                    <circle id="Oval" fill="#EB0000" cx="4" cy="4" r="2"></circle>
                </g>
                <g id="Bus-Stop-Copy">
                    <circle id="Oval" fill="#FFFFFF" cx="4" cy="4" r="4"></circle>
                    <circle id="Oval" fill="#321FFD" cx="4" cy="4" r="2"></circle>
                </g>
                <g id="Bus-Stop-Copy-2" transform="translate(24.000000, 11.000000)">
                    <circle id="Oval" fill="#FFFFFF" cx="4" cy="4" r="4"></circle>
                    <circle id="Oval" fill="#321FFD" cx="4" cy="4" r="2"></circle>
                </g>
            </g>
        </g>
    </g>
</svg>