<!--?xml version="1.0" encoding="UTF-8"?-->
<svg width="475px" height="182px" viewBox="0 0 475 182" version="1.1" xmlns="http://www.w3.org/2000/svg" xmlns:xlink="http://www.w3.org/1999/xlink" class="" style="">
    <!-- Generator: Sketch 45 (43475) - http://www.bohemiancoding.com/sketch -->
    <title>pulse-line</title>
    <desc>Created with Sketch.</desc>
    <defs>
        <linearGradient x1="0.25781251%" y1="49.7500002%" x2="101.257813%" y2="49.7500002%" id="linearGradient-1">
            <stop stop-color="#0000FF" offset="0%"></stop>
            <stop stop-color="#0000FF" offset="23.832111%"></stop>
            <stop stop-color="#008000" offset="24.018975%"></stop>
            <stop stop-color="#008000" offset="65.1231432%"></stop>
            <stop stop-color="#FFA500" offset="65.9359056%"></stop>
            <stop stop-color="#FFA500" offset="80.6080912%"></stop>
            <stop stop-color="#F42A04" offset="81.3979415%"></stop>
            <stop stop-color="#F42A04" offset="88.3888712%"></stop>
            <stop stop-color="#F42A04" offset="100%"></stop>
        </linearGradient>
    </defs>
    <g id="Page-1" stroke="none" stroke-width="1" fill="none" fill-rule="evenodd">
        <g id="River" transform="translate(52.000000, 126.000000)" stroke="#93D1FF">
            <path id="James-River" fill="#4A90E2" d="M88.8896484,29.4980469L104.78418,31.9921875L106.117188,29.0830078L108.12793,31.8330078L124.776367,35.8496094L134.417969,34.4296875L140.952148,37.3681641L143.393555,40.1865234L150.308594,42.1826172L164.166016,39.9990234L178.3125,35.5048828L182.925781,33.3857422L186.966797,33.0615234L193.916016,28.1875L199.030273,19.0439453L214.662109,11.0166016L233.790039,4.61230469L247.321289,4.50390625L258.146484,2.87988281L266.616211,0.8359375L275.914062,3.43945313L292.443359,8.34570312L315.672852,14.1191406L332.486328,17.6787109L338.967773,21.6660156L341.527344,28.2529297L341.338867,43.84375L343.714844,53.8017578L338.586914,54.4921875L334.849609,42.7148438L333.986328,34.1142578L329.589844,26.0166016L323.353516,23.2460938L316.685547,23.4277344L304.125,20.5869141L294.925781,17.8515625L289.892578,16.0595703L272.041016,19.0439453L257.404297,21.7919922L244.885742,16.0595703L237.78418,17.2753906L227.865234,27.9560547L216.40625,34.2460937L225.317383,25.5537109L226.594727,18.7412109L228.977539,15.3789063L220.061523,17.2753906L211.140625,23.9580078L203.928711,29.5068359L200.882812,35.6513672L201.625977,38.9736328L209.381836,36.96875L213.572266,34.4296875L207.663086,40.9160156L200.625977,44.3828125L192.375,48.8896484L185.68457,50.2871094L189.660156,46.0078125L175.22168,46.9228516L166.204102,48.2431641L153.552734,51.8515625L160.717773,53.8232422L173.839844,51.3369141L186.438477,47.5556641L183.621094,50.3632812L167.272461,55.0761719L136.661133,54.1708984L121.814453,51.7666016L115.631836,48.1035156L108.693359,46.7148438L99.6269531,51.8095703L91.6923828,51.9726562L88.5859375,47.5654297Z" class="GKIqJKCd_0"></path>
            <path id="Path" fill="#4A90E2" d="M89.0068359,29.6396484L63.7265625,27.8300781L31.6523438,33.1806641L24.7070312,33.4492188L0.9296875,53.5712891L34.0429688,53.8662109L51.1943359,45.6269531L67.0302734,45.2851562L81.4140625,46.3476562L88.1279297,48.0712891Z" class="GKIqJKCd_1"></path>
            <path id="Path-56" d="M88.7373047,29.1943359L63.3251953,27.7148438L24.7998047,33.9296875L0.891601562,53.8085938" class="GKIqJKCd_2"></path>
            <path id="Path-59" d="M19.2490234,52.7724609L33.6152344,41.9736328L66.375,37.7490234L91.4863281,40.1240234L102.679688,43.2382812L118.175781,45.6513672L130.489258,47.0429688L146.267578,51.0458984" class="GKIqJKCd_3"></path>
            <path id="Path-60" d="M33.5292969,53.6474609L50.8837891,44.9140625L73.3408203,44.7382812L87.8408203,46.7324219" class="GKIqJKCd_4"></path>
            <path id="Path-62" d="M232.202148,14.6845703L246.449219,12.5615234L256.773438,16.0927734L265.253906,18.1806641L280.301758,12.9345703" class="GKIqJKCd_5"></path>
            <path id="Path-61" d="M192.27832,42.7099609L197.541992,38.6494141L200.549805,32.3232422L205.458984,24.4931641L211.541016,21.6601562" class="GKIqJKCd_6"></path>
            <path id="Path-58" d="M11.53125,53.3134766L27.3300781,39.0146484L48.8369141,35.7324219L62.1347656,33.5751953L82.0332031,34.2304688L105.320312,39.1650391L115.432617,40.6640625L121.345703,42.9902344L133.12793,40.9179688L141.457031,45.8056641L150.168945,47.6171875L164.989258,45.5625L183.919922,43.0712891L196.264648,33.9414062L203.899414,23.5947266L216.28418,16.8369141L236.754883,9.46972656L266.707031,7.54785156L294.861328,12.4248047L325.466797,21.28125L331.702148,25.0166016L336.944336,38.9707031L338.65332,49.1953125" class="GKIqJKCd_7"></path>
            <path id="Path" d="M4.81738281,54.1787109L25.2480469,37.1396484L38.953125,34.1992188L63.0712891,29.8359375L82.5185547,31.6630859L100.40918,34.4628906L128.111328,38.9189453L134.261719,37.640625L139.858398,42.2060547L146.205078,44.6943359L184.035156,40.8339844L193.935547,31.1484375L201.446289,21.1269531L218.967773,12.5234375L240.625977,6.52246094L265.59668,5.41503906L292.519531,10.0625L320.416016,16.1914062L332.899414,22.5615234L340.134766,42.5654297L340.242188,51.0429688" class="GKIqJKCd_8"></path>
        </g>
        <g id="Streets" transform="translate(5.000000, 1.000000)" stroke="#B9B9B9">
            <path d="M240.5,105.5 L261.5,100.5" id="Line" class="GKIqJKCd_9"></path>
            <path d="M252.5,98.5 L260.5,131.5" id="Line" class="GKIqJKCd_10"></path>
            <path d="M269.5,128.5 L308.5,60.5" id="Line" class="GKIqJKCd_11"></path>
            <path d="M257.5,133.5 L269.5,128.5" id="Line" class="GKIqJKCd_12"></path>
            <path d="M256.5,97.5 L264.5,130.5" id="Line" class="GKIqJKCd_13"></path>
            <path d="M260.5,96.5 L268.5,132.5" id="Line" class="GKIqJKCd_14"></path>
            <path d="M238.5,114.5 L264.5,108.5" id="Line" class="GKIqJKCd_15"></path>
            <path d="M251.5,116.5 L263.5,113.5" id="Line" class="GKIqJKCd_16"></path>
            <path d="M253.5,120.5 L270.5,116.5" id="Line" class="GKIqJKCd_17"></path>
            <path d="M270.5,116.5 L275.5,119.5" id="Line" class="GKIqJKCd_18"></path>
            <path d="M254.5,124.5 L266.5,121.5" id="Line" class="GKIqJKCd_19"></path>
            <path d="M249.5,99.5 L255.5,128.5" id="Line" class="GKIqJKCd_20"></path>
            <path d="M261.5,96.5 L315.5,113.5" id="Line" class="GKIqJKCd_21"></path>
            <path d="M262.5,100.5 L313.5,116.5" id="Line" class="GKIqJKCd_22"></path>
            <path d="M263.5,105.5 L312.5,119.5" id="Line" class="GKIqJKCd_23"></path>
            <path d="M318.5,109.5 L310.5,122.5" id="Line" class="GKIqJKCd_24"></path>
            <path d="M318.5,109.5 L0.5,13.5" id="Line" class="GKIqJKCd_25"></path>
            <path d="M270.5,95.5 L266.5,101.5" id="Line" class="GKIqJKCd_26"></path>
            <path d="M266.5,94.5 L264.5,97.5" id="Line" class="GKIqJKCd_27"></path>
            <path d="M273.5,96.5 L267.5,106.5" id="Line" class="GKIqJKCd_28"></path>
            <path d="M277.5,96.5 L270.5,107.5" id="Line" class="GKIqJKCd_29"></path>
            <path id="Path-2" d="M268.170898,129.489746L268.905273,138.775391L268.290039,146.852051L267.205078,154.675781L266.118164,164.267578L267.623535,167.358398L270.902344,170.583496L280.315918,179.331055" class="GKIqJKCd_30"></path>
            <path id="Path-3" d="M308.992676,106.872559L294.099121,130.118652L286.355957,144.740234L285.46582,147.000977L285.813477,150.342773L287.861816,152.580078L291.138184,154.453125L317.59375,170.343262L320.118164,175.303223L321.742188,177.45166L325.743652,179.29541" class="GKIqJKCd_31"></path>
            <path id="Path-4" d="M194.870117,0.493164062L196.444336,4.68261719L190.822266,23L181.084961,61.2597656L177.047852,76.8037109L173.074219,91.0078125L167.865234,111.986328L166.054688,117.818359" class="GKIqJKCd_32"></path>
            <path id="Path-5" d="M196.707031,4.56445312L217.048828,67.1015625L220.817383,79.5214844" class="GKIqJKCd_33"></path>
            <path id="Path-6" d="M197.595703,4.84960938L203.670898,7.69628906L211.736328,9.046875L218.549805,10.0615234L222.472656,13.3427734L226.774414,15.8701172L238.805664,13.2705078L252.90332,10.5703125L306.68457,0.486328125" class="GKIqJKCd_34"></path>
            <path id="Path-7" d="M234.880859,0.228515625L238.330078,10.125L241.386719,20.0361328L247.853516,36.3818359L254.584961,50.9501953L264.353516,58.6054688L270.094727,62.9316406L270.460938,65.3066406L277.927734,67.0263672L280.863281,68.9462891L285.942383,78.8808594L275.592773,99.8076172" class="GKIqJKCd_35"></path>
            <path id="Path-8" d="M0.392578125,64.8583984L3.59765625,70.1992188L30.6191406,62.7832031L44.2333984,65.859375L101.206055,77.2197266L130.571289,83.0615234L168.307617,86.8183594L204.433594,90.5166016L235.641602,93.7861328L245.852539,91.9101562L251.865234,93.7958984L254.358398,90.0957031" class="GKIqJKCd_36"></path>
            <path id="Path-9" d="M0.373046875,31.4541016L39.3271484,45.8359375L76.8984375,54.6513672L129.604492,67.1113281L148.388672,71.4853516L166.097656,71.3066406L173.694336,70.9179688L184.320312,72.7841797L210.436523,81.1865234L217.954102,84.2734375L224.987305,86.1728516L231.716797,90.625L244.425781,92.3291016" class="GKIqJKCd_37"></path>
            <path id="Path-10" d="M134.256836,75.0458984L190.640625,81.078125L210.113281,83.4384766L214.151367,83.2001953L209.934398,99.2567451L206.49707,112.344727L238.236328,114.782227L242.232422,100.371094L237.716797,101.791992" class="GKIqJKCd_38"></path>
            <path id="Path-11" d="M238.353516,115.267578L236.916992,117.883789L234.454102,121.125977L231.397461,124.076172L230.180664,128.317383L228.013672,131.833008L223.989258,133.520508L192.708008,141.647461L192.042969,118.6875L177.773438,117.621094L185.123047,92.7041016L236.303711,97.8544922L233.869141,105.206055L187.796875,101.15332L183.916016,114.673828L209.300781,117.661133L204.77832,135.162109L195.830078,134.171875L198.979492,122.067383L225.988281,124.755859L229.920898,111.085937L232.261719,101.287109L128.639648,91.8125L129.766602,87.1953125L177.041016,92.0654297L179.117188,83.3349609L132.142578,79.453125L155.886719,39.7841797L163.817383,29.9755859" class="GKIqJKCd_39"></path>
            <path id="Path-12" d="M3.828125,70.4375L9.73242188,80.2011719L13.2011719,80.578125L39.9863281,77.6425781L63.1083984,82.3476562L118.740234,93.8603516L131.644531,95.9023438L166.345703,99.2734375L207.931641,103.048828L238.599609,106.52832L244.556641,104.664062L244.240234,99.9960938L237.107422,101.844727L232.160949,101.409678L229.423828,101.168945" class="GKIqJKCd_40"></path>
            <path id="Path-13" d="M248.669922,0.397460938L261.077148,30.4169922L264.449219,38.3496094L270.236328,44.5703125L271.9375,54.3701172L281.516602,69.5019531L286.647461,79.3085938L317.443359,89.0458984L326.609375,90.9931641L335.399414,93.4052734L346.795898,91.4023438L353.242188,89.5595703L360.635742,91.8398438L363.479492,92.6171875L381.115234,87.7900391L384.412109,88.5419922L386.699219,84.3974609L402.041016,88.8242188L417.189453,93.0507813L421.051758,95.1425781L434.545898,91.0107422L446.189453,97.4853516L460.78418,99.0390625L467.006836,98.3886719" class="GKIqJKCd_41"></path>
            <path id="Path-15" d="M286.691406,75.2861328L291.453125,77.0585938L273.943604,107.913086L277.005127,109.289795L294.417236,77.8950195L301.17749,79.9177246L282.647705,112.986572L285.799561,114.159668L304.648438,80.625L307.938965,81.9216309L288.872314,115.319824L295.709473,117.404541L314.145508,83.6123047L317.359619,84.6374512L301.276855,113.511963L301.803711,116.060059L302.734619,116.716553L320.625488,85.8342285L323.65625,86.7939453L319.252441,94.8557129L322.398926,95.5241699L325.143799,91.2092285L322.884033,95.6730957L325.354492,96.6313477L328.192871,91.9926758L325.910889,96.7375488L327.119141,97.3342285" class="GKIqJKCd_42"></path>
            <path id="Path-16" d="M314.726807,83.4936523L317.053223,79.0617676L320.203125,80.0773926L325.021973,84.3718262L324.127686,86.2858887L322.959961,86.6220703L286.212158,75.4953613L287.251221,73.8056641L304.280029,73.8952637L306.870361,69.6628418L302.840576,68.3339844L292.851253,68.0717031L289.264893,67.9775391L287.752441,70.824707L291.543701,70.9787598L292.884521,68.5705566L296.297607,68.6235352L294.861572,70.7922363L304.876709,71.9101562" class="GKIqJKCd_43"></path>
            <path d="M236.5,97.5 L251.5,94.5" id="Line" class="GKIqJKCd_44"></path>
            <path d="M243.5,93.5 L243.5,95.5" id="Line" class="GKIqJKCd_45"></path>
            <path id="Path-17" d="M257.822998,66.5683594L247.18335,63.2324219L246.217041,63.7661133L232.439697,86.623291L230.74292,89.5012207L229.400635,89.7626953L225.617676,103.918213L226.179443,105.82666L225.67749,107.696045L230.873047,108.583984L231.532715,105.001221L229.534424,104.8396L233.349365,91.043457L234.773926,91.0112305L238.011475,106.570557L246.274658,104.08667L247.781982,112.169434L242.011719,113.581787L236.636963,112.022705L223.475098,110.595947L216.111572,109.877197L207.655029,108.96167L206.480469,112.325928L196.717041,110.857422L185.737549,109.761719L184.843018,111.751221L184.669678,112.39917L210.223389,114.860107L209.472168,117.322754L209.075684,118.538086L227.353516,120.231689L226.740234,122.257568L192.007812,118.926758L192.373779,127.652832L226.12207,130.772217" class="GKIqJKCd_46"></path>
            <path id="Path-19" d="M186.844971,118.140381L189.632324,108.345703L194.168457,107.811035L191.221436,118.429443L195.202393,119.26709L198.414063,107.990479L202.94873,108.567139L198.867676,122.48999L193.943848,140.963623L193.7854,160.885254L194.317627,159.495117L197.049316,158.911133L197.166748,140.618164L200.587646,139.538086L200.363281,158.114502L203.697998,157.365967L203.833496,138.536621L204.76416,134.996094L207.280518,125.900391L229.943848,128.444824" class="GKIqJKCd_47"></path>
            <path id="Path-20" d="M192.377441,139.254395L192.061035,141.533691L190.861572,142.483643L190.8125,145.799316L200.462646,143.17749L200.652588,144.938965L207.115451,143.550658L210.640381,142.793457L210.509521,148.82373L190.478271,152.998291L190.525879,156.5625L210.694824,152.181641L210.204834,149.371582L207.135742,149.138428" class="GKIqJKCd_48"></path>
            <path d="M190.5,149.5 L200.5,147.5" id="Line" class="GKIqJKCd_49"></path>
            <path d="M207.246338,143.708252 L207.120605,159.641846" id="Path-21" class="GKIqJKCd_50"></path>
            <path id="Path-18" d="M259.386719,26.4492188L228.017578,82.9033203L224.53125,90.6621094L214.529297,134.524414L213.90332,136.165771L216.857422,135.384033L218.476318,130.134277L221.437012,130.281494L220.344971,134.235596L223.607178,133.535889L226.212891,124.656494L231.002686,125.541748L237.153564,117.5896L228.797852,116.842773L228.304932,116.023926L216.065674,114.895264L216.614014,113.042725" class="GKIqJKCd_51"></path>
            <path id="Path-23" d="M175.928467,66.7722168L173.61792,71.2211914L172.582275,74.934082L168.531738,74.7199707L159.622314,107.008789L165.108398,107.861328L167.439941,99.2189941L166.171875,99.1420898L169.398682,86.8837891L173.996338,87.4001465L177.229004,75.7102051L189.646973,76.7998047L185.156006,92.5783691L189.62793,93.1286621L194.036133,75.8525391L197.994385,77.1552734L190.538086,104.708252L195.135742,104.864502L202.044678,78.3635254L205.946533,79.6455078L199.296387,105.000488L199.492188,105.437012L203.95752,105.811035L210.063232,80.9829102L212.164551,77.5856934L218.279541,79.9919434L217.212402,83.4418945L217.677734,84.2470703L212.883301,103.492432L212.515869,106.415527L216.936768,106.993652L221.885742,85.4838867L226.287598,86.7644043L227.072266,85.3659668L240.425537,89.4025879L238.838135,92.682373L240.944824,100.330811L250.416016,99.0876465L261.060303,96.5068359L260.53833,92.3000488L264.738525,109.03125L271.425049,110.796875L276.48999,112.987305L281.82373,114.511963L279.917236,117.702148L282.781006,118.701172L284.909912,115.330322L288.222412,116.613037L285.636719,121.415283L286.52417,125.103027L291.52002,124.109619L292.644043,121.442627L289.656006,120.73877L291.324219,117.571045L288.898682,116.847412L294.680908,118.66626L292.935303,121.146729L291.841309,124.5271L294.41748,124.906982L297.644043,125.836426L298.725098,126.110107L302.087646,125.651123L304.527832,121.270508L295.144287,118.715576L307.646484,122.48291L306.550537,124.351807" class="GKIqJKCd_52"></path>
            <path id="Path-24" d="M262.708252,104.988525L251.329102,107.683594L244.213379,109.095215L239.738281,109.395752L231.189941,108.318115L224.5,107.613525L223.143799,106.424072L220.594238,106.189453L216.435547,107.165283L208.159912,106.19165L203.895996,105.782471L187.042969,104.085693L189.469238,92.9821777L191.628418,85.1149902L230.849365,89.3322754L183.192383,84.4313965L176.656982,108.234619L172.447266,108.517334L176.762451,92.1640625L180.175293,79.3552246L184.782959,69.3208008L188.651855,70.6901855L185.063232,76.901123" class="GKIqJKCd_53"></path>
            <path id="Path-25" d="M238.624512,69.7905273L319.274902,95.0102539L322.040527,89.9223633L216.784668,57.8862305L210.397461,57.3574219L203.496094,55.3081055L194.971191,48.1708984L191.900879,46.1914062L182.359863,45.7924805L160.286621,34.8852539L155.841797,40.2729492L178.160645,51.5439453L190.690918,56.5854492Z" class="GKIqJKCd_54"></path>
            <path id="Path-26" d="M339.624023,96.5058594L340.092773,101.898438L332.96582,114.539062" class="GKIqJKCd_55"></path>
            <path id="Path-27" d="M323.345703,62.6396484L336.94043,61.6982422L339.243164,79.828125L345.027344,101.181641L339.421875,112.199219L342.508789,113.825195L349.585937,100.582031L344.321289,82.8271484L349.970703,80.6416016L354.591797,71.3203125L363.206055,72.8505859L363.491211,77.8369141L355.65625,89.2226562L356.602539,98.4970703L355.174805,105.665039L348.25293,116.481445L362.000977,120.118164L375.693359,95.5341797L417.005859,109.053711L420.077148,105.806641L397.06871,98.6784503L380.019531,93.3964844L365.811523,119.697266L367.705078,121.503906L388.177734,128.000977L407.442383,93.9814453L387.361328,88.3613281L371.429688,118.291992L387.168945,123.428711L402.222656,96.6240234L388.891602,93.1972656L376.44043,115.585938L385.793945,118.925781L393.607422,105.080078" class="GKIqJKCd_56"></path>
            <path id="Path-28" d="M337.399414,107.930664L396.367188,126.482422L411.435547,99.6826172L381.236328,91.2109375L345.442383,100.34668L344.549805,102.525391L348.082031,103.839844L346.546875,106.524414L359.518555,110.675781L363.691406,104.009766L407.272461,117.813477L415.787109,123.329102L419.925781,127.211914L419.925781,129.46875L432.772461,135.459961L440.473633,139.1875L446.996094,143.574219L455.797852,149.113281L461.322266,156.699219L465.379883,173.956055L460.554687,174.606445L455.121094,155.46875L450.339844,153.875977L418.750977,161.292969L416.050781,162.453125L412.466797,161.704102L408.652344,158.811523L403.604492,150.924805L400.3125,143.433594L392.266602,139.842773L386.384766,138.261719L382.210937,137.083008L381.095703,132.699219L382.327148,130.442383L376.612305,128.443359L402.920898,81.1835938L400.032227,80.5439453L374.961914,124.589844" class="GKIqJKCd_57"></path>
            <path id="Path-29" d="M344.899414,114.93457L351.50293,102.616211L368.734375,97.7900391L422.470703,114.484375" class="GKIqJKCd_58"></path>
            <path id="Path-30" d="M358.745117,119.242188L372.261719,95.0371094L371.151367,89.6552734L385.192383,64.7080078" class="GKIqJKCd_59"></path>
            <path id="Path-31" d="M359.702148,110.416016L402.972656,124.495117L407.523437,124.566406" class="GKIqJKCd_60"></path>
            <path id="Path-32" d="M381.72168,125.595703L411.78418,73.3027344L419.222656,70.0253906" class="GKIqJKCd_61"></path>
            <path id="Path-33" d="M360.070312,103.329102L368.890625,101.500977L421.754883,118.619141" class="GKIqJKCd_62"></path>
            <path id="Path-34" d="M361.850586,91.8076172L359.56543,106.47168L407.453125,121.893555" class="GKIqJKCd_63"></path>
            <path d="M371.898438,121.662109 L398.862305,75.3232422" id="Path-35" class="GKIqJKCd_64"></path>
            <path id="Path-36" d="M404.616211,149.583008L413.734375,147.977539L417.390625,147.390625L429.12207,139.250977L436.71875,130.051758L448.140625,120.370117L447.757812,112.289062L455.698242,104.675781L455.375977,98.8808594" class="GKIqJKCd_65"></path>
            <path id="v" d="M209.136963,158.11084L207.965332,156.462646L203.803223,157.445557L190.409912,160.273926L190.858643,142.699707L192.453369,141.108398L192.530518,133.721191L195.744629,134.108887L196.582764,131.845459L199.385498,132.200439L198.842285,134.028564L201.905518,135.030029L202.423096,132.577881L205.437988,132.896484L206.098877,130.23584L192.239014,129.08252L192.086426,125.29248L197.565674,126.214111L198.217285,124.790283L207.29541,125.978027L213.046143,126.207764L213.948975,123.765625L210.214111,136.851074" class="GKIqJKCd_66"></path>
            <path id="Path-22" d="M412.589844,160.945312L408.756836,143.771484L415.980469,141.387695L417.693359,151.416016L422.150391,153.419922L436.959961,149.649414L438.779297,156.509766L445.151367,155.457031L442.263672,145.005859" class="GKIqJKCd_67"></path>
            <path id="Path-37" d="M427.919922,158.856445L425.605469,149.457031L428.957031,148.563477L428.393555,146.326172L435.487305,144.454102L437.227539,150.40918L451.880859,146.956055L464.349609,137.733398" class="GKIqJKCd_68"></path>
            <path id="Path-38" d="M431.833008,143.679688L434.995117,157.656738L434.869141,159.992188L435.781738,164.76709L433.90918,166.958984L418.195801,170.564941L415.678711,162.600586L422.573242,160.211914L423.118164,165.375488L430.043945,163.833008L429.658691,161.259766L446.99707,157.040039L452.710938,177.052734" class="GKIqJKCd_69"></path>
            <path id="Path-39" d="M408.915527,158.907715L437.511719,152.004883L438.352051,154.061523L453.447266,149.703125L460.491699,144.661133L458.595215,142.772461" class="GKIqJKCd_70"></path>
            <path id="Path-40" d="M436.399414,147.23877L428.772949,148.710449L431.37793,158.07959" class="GKIqJKCd_71"></path>
            <path id="Path-41" d="M440.613281,156.774902L444.380371,170.558105L446.260254,170.224609L446.852346,172.739235L447.489746,175.446289L452.02832,174.296387L451.326172,171.628418" class="GKIqJKCd_72"></path>
            <path id="Path-42" d="M435.693848,162.51709L455.62207,157.848145L455.007324,152.365723L451.561035,147.366211L448.961914,147.890625L454.42041,168.064941L463.910156,165.964844L467.005859,166.904785L466.396484,159.241211L459.320312,157.063965L463.124512,174.369629" class="GKIqJKCd_73"></path>
            <path id="Path-43" d="M462.42041,161.049805L443.368652,165.546387L442.557129,163.448242L448.597656,161.939941L449.856445,167.158691L433.422363,170.306641" class="GKIqJKCd_74"></path>
            <path id="Path-44" d="M434.277344,133.115723L437.172363,134.419922L439.85498,134.538574L447.947266,140.416016L466.090332,124.422363L463.083984,122.286133L448.189453,135.733398L445.223633,133.965332L460.171387,120.24707L457.37793,118.381836L452.698242,122.447266L466.680176,132.303711L461.949219,136.286133L458.779297,134.131348L463.214355,130.806152" class="GKIqJKCd_75"></path>
            <path id="Path-45" d="M411.119629,101.195312L429.201172,92.9790039L430.578613,95.4702148L413.322754,103.438477L417.119141,104.834473L427.068359,100.342773" class="GKIqJKCd_76"></path>
            <path id="Path-46" d="M428.322266,112.199707L424.367188,107.137207L418.631836,97.2124023L417.385254,97.7138672L407.282715,94.0683594L412.887695,84.5297852" class="GKIqJKCd_77"></path>
            <path id="Path-47" d="M415.067383,99.1938477L418.102539,105.22168L424.398926,107.445801L434.974121,102.806641" class="GKIqJKCd_78"></path>
            <path id="Path-48" d="M418.705078,107.713867L411.61377,121.531738L412.578125,124.428711L414.946777,126.422363L415.562988,129.094238L419.843262,129.38623L402.461914,130.808105L402.443848,128.901855L396.854492,126.765137" class="GKIqJKCd_79"></path>
            <path id="Path-49" d="M400.659668,126.039551L413.68457,103.310059L409.752441,102.484863L417.449219,90.1655273" class="GKIqJKCd_80"></path>
            <path id="Path-50" d="M393.364746,125.442871L414.092285,89.0390625L363.118164,72.5825195L363.682617,76.8676758L386.429199,83.6025391L384.251465,87.2568359L362.167969,79.8837891L360.063965,83.1025391L376.55957,88.4101562" class="GKIqJKCd_81"></path>
            <path d="M192.684082,131.664062 L202.67041,132.575195" id="Path-51" class="GKIqJKCd_82"></path>
            <path d="M204.037598,157.437012 L203.770508,161.572266" id="Path-52" class="GKIqJKCd_83"></path>
            <path id="Path-53" d="M239.983887,114.638184L241.014648,120.030762L237.38623,120.849609L228.00293,119.479492L227.067383,120.193359L222.556641,119.548828L221.803223,123.883301L230.908691,125.481934L233.706055,122.571289L226.978516,122.352051" class="GKIqJKCd_84"></path>
            <path id="Path-54" d="M291.71582,76.5668945L293.111816,73.8505859L273.703613,73.4482422L277.943359,81.9521484L274.204102,81.0561523L275.408691,78.7685547L269.107422,76.8330078L274.44873,66.4003906L267.42627,78.3613281L262.844727,77.2260742L265.333496,72.8896484L262.243652,71.8505859L262.82959,70.4868164L259.973633,69.4174805L258.306641,70.2431641L253.606445,74.3178711L249.956543,73.3681641L254.010742,65.3408203L247.369629,63.5053711L246.224121,63.8808594L243.37793,68.5463867L247.042969,70.0664062L246.285645,71.5053711L238.474121,69.8149414L242.754883,62.2143555L240.498047,61.1396484" class="GKIqJKCd_85"></path>
            <path d="M239.999512,67.6772461 L269.937012,76.8251953" id="Path-55" class="GKIqJKCd_86"></path>
            <path d="M263.743164,77.2128906 L254.130859,90.8359375" id="Path-57" class="GKIqJKCd_87"></path>
            <path d="M250.268555,73.4697266 L240.224609,89.7529297" id="Path-63" class="GKIqJKCd_88"></path>
            <path id="Path-64" d="M267.766602,78.8115234L261.226562,92.0039062L266.942383,94.1230469L274.478516,80.6943359L277.827148,81.796875L270.322266,96.40625" class="GKIqJKCd_89"></path>
            <path id="Path-65" d="M190.489258,44.0751953L174.698242,69.6074219L165.821289,67.8457031L148.748047,68.0566406L149.842773,62.9365234L156.388672,50.1113281L174.539062,27.0537109" class="GKIqJKCd_90"></path>
            <path id="Path-66" d="M144.658203,113.866211L148.890625,104.964844L150.819336,93.7109375L152.84668,85.6416016L151.294922,85.2070312L154.945312,67.9404297L154.820312,65.0634766L158.095703,57.5830078L166.180664,44.3525391L178.042969,29.2294922" class="GKIqJKCd_91"></path>
            <path id="Path-67" d="M184.038086,35.2783203L172.544922,48.9853516L166.086914,61.6972656L165.173828,71.2353516L160.496094,88.3603516L154.21875,106.131836" class="GKIqJKCd_92"></path>
            <path id="Path-68" d="M176.077148,38.7207031L166.916992,49.5380859L161.616211,61.4306641L156.671875,84.9560547" class="GKIqJKCd_93"></path>
            <path id="Path-69" d="M149.039062,68.3828125L145.104492,84.2304688L143.370117,85.078125L140.580078,96.6474609L139.3125,103.014648L135.708984,109.605469" class="GKIqJKCd_94"></path>
            <path d="M178.549805,75.3320312 L137.673828,72.0068359" id="Path-70" class="GKIqJKCd_95"></path>
            <path id="Path-71" d="M258.649414,178.970703L273.400391,167.290039L286.008789,154.193359L315.643555,172.426758L340.496094,145.956055L348.771484,146.319336L363.323242,149.469727L371.432617,159.331055" class="GKIqJKCd_96"></path>
            <path id="Path-72" d="M229.744141,178.918945L232.609375,178.035156L237.946289,178.291992L243.125977,175.90332L246.112305,173.888672L251.233398,173.223633L252.885742,172.160156L254.021484,170.02832L258.241211,167.579102L262.793945,171.427734L267.705078,167.641602L276.089844,174.729492L278.842773,172.564453L296.37755,153.698161L297.786133,152.182617" class="GKIqJKCd_97"></path>
            <path id="Path-73" d="M275.108398,157.624023L309.168945,178.741211L311.802734,175.905273L282.121094,158.788086L283.257812,156.041016L314.243164,174.625L319.117188,174.563477L329.5,162.807617L307.428711,150.356445" class="GKIqJKCd_98"></path>
            <path id="Path-74" d="M288.854492,178.780273L318.610352,147.027344L321.740234,149.049805L293.90332,178.731445" class="GKIqJKCd_99"></path>
            <path id="Path-75" d="M273.56543,172.305664L293.447266,151.349609L312.771484,163.571289L326.145508,150.037109L332.214844,154.273438" class="GKIqJKCd_100"></path>
            <path id="Path-76" d="M330.75,156.969727L316.698242,148.942383L311.585938,149.126953L282.567383,179.273438" class="GKIqJKCd_101"></path>
            <path id="Path-77" d="M329.324219,151.938477L304.106445,178.785156L275.075195,161.689453" class="GKIqJKCd_102"></path>
        </g>
        <g id="Interstates" transform="translate(128.000000, 1.000000)" stroke-width="2" stroke="#A3A3A3">
            <path id="Connector" d="M177.531494,73.4824219L181.345947,75.1828613L186.155029,75.4484863L182.131592,73.2976074Z" class="GKIqJKCd_103"></path>
            <path id="Connector" d="M200.119385,66.4301758L200.550781,61.3361816L197.770264,64.6560059L199.080811,66.7438965Z" class="GKIqJKCd_104"></path>
            <path id="I95" d="M181.192383,74.2207031L194.825195,77.1132812L202.576172,80.6132812L204.103516,83.421875L200.442383,73.2714844L199.175781,65.4677734L205.060547,85.6806641L209.50293,90.6035156L212.151367,96.1376953L211.838867,103.919922L206.380859,111.993164L205.234375,114.996094L209.080078,126.793945L212.041016,131.960938" class="GKIqJKCd_105"></path>
            <path id="I64" d="M46.2578125,0.608398438L50.2929688,4.70605469L57.5380859,7.93164062L65.9580078,10.7861328L76.6552734,14.65625L84.4609375,18.0703125L94.7089844,18.5576172L99.7470703,20.2099609L104.99707,25.171875L106.758789,33.5556641L107.433594,44.2802734L109.37793,51.0693359L111.547852,54.2509766L116.672852,57.9423828L123.369141,59.4208984L131.675781,61.3515625L138.251953,65.9287109L145.592773,69.4453125L154.926758,71.9990234L164.84375,72.1064453L172.522461,71.9541016L178.750977,73.3173828L183.375,73.3173828L188.958984,72.2783203L195.455078,67.7763672L199.337891,62.8056641L203.546875,53.2802734L210.366211,40.5751953L215.921875,34.3945312L224.076172,29.9804688" class="GKIqJKCd_106"></path>
            <path id="I195" d="M30.8837891,0.202148438L33.5732422,7.44628906L30.203125,13.0205078L25.2636719,19.4121094L25.4462891,24.7431641L27.5410156,28.8388672L29.7734375,33.1738281L30.3798828,38.0917969L27.0126953,45.1884766L21.5175781,53.6474609L17.0380859,59.9521484L8.15429688,73.5996094L2.15527344,83.5537109L0.702148438,90.2236328L0.827148438,98.1796875L2.5703125,102.297852L5.06347656,104.008789L15.2226563,103.65332L20.1113281,104.735352L25.5273438,104.825195L32.7607422,108.025391L38.2714844,108.982422L51.5791016,109.544922L64.0410156,108.730469L69.1894531,106.506836L76.7871094,106.234375L119.786133,110.639648L137.904297,107.007813L149.53418,108.49707L172.958984,118.099609L190.670898,121.619141L201.544922,124.21875L210.026367,127.84668L211.836914,131.960937L214.439261,136.645922L227.201172,159.621094L238.740234,179.120117L240.773438,179.555664" class="GKIqJKCd_107"></path>
            <path id="Path-14" d="M37.8193359,109.807617L29.4023438,110.356445L18.4697266,118.12793L12.9873047,124.169922L25.7373047,110.324219L32.0195312,107.652344" class="GKIqJKCd_108"></path>
        </g>
        <g id="Bus-Line-and-Stops" transform="translate(74.000000, 9.000000)">
            <path id="Bus-Line" stroke="url(#linearGradient-1)" stroke-width="6" d="M324.174805,149.635742L322.194336,146.739258L318.40332,146.34375L315.587891,140.526367L310.189453,135.772461L304.366211,131.84082L300.967773,122.341797L254.408203,107.392578L259.166992,100.041992L259.791992,96.9287109L190.260742,76.25L153.068359,64.6708984L111.926758,52.4677734L106.93457,50.6123047L3.06152344,0.7265625L0.55078125,4.36035156L0.387695312,6.43945312L6.56640625,9.19628906L10.9179688,6.859375" class="GKIqJKCd_109"></path>
            <g id="Stops" transform="translate(18.000000, 6.000000)">
                <g id="Bus-Stop-Copy-8" transform="translate(74.000000, 35.000000)">
                    <path id="Oval" fill="#FFFFFF" d="M0,4A4,4 0,1,1 8,4A4,4 0,1,1 0,4" class="GKIqJKCd_110"></path>
                    <path id="Oval" fill="#417505" d="M2,4A2,2 0,1,1 6,4A2,2 0,1,1 2,4" class="GKIqJKCd_111"></path>
                </g>
                <g id="Bus-Stop-Copy-9" transform="translate(120.000000, 51.000000)">
                    <path id="Oval" fill="#FFFFFF" d="M0,4A4,4 0,1,1 8,4A4,4 0,1,1 0,4" class="GKIqJKCd_112"></path>
                    <path id="Oval" fill="#417505" d="M2,4A2,2 0,1,1 6,4A2,2 0,1,1 2,4" class="GKIqJKCd_113"></path>
                </g>
                <g id="Bus-Stop-Copy-18" transform="translate(161.000000, 64.000000)">
                    <path id="Oval" fill="#FFFFFF" d="M0,4A4,4 0,1,1 8,4A4,4 0,1,1 0,4" class="GKIqJKCd_114"></path>
                    <path id="Oval" fill="#417505" d="M2,4A2,2 0,1,1 6,4A2,2 0,1,1 2,4" class="GKIqJKCd_115"></path>
                </g>
                <g id="Bus-Stop-Copy-19" transform="translate(192.000000, 73.000000)">
                    <path id="Oval" fill="#FFFFFF" d="M0,4A4,4 0,1,1 8,4A4,4 0,1,1 0,4" class="GKIqJKCd_116"></path>
                    <path id="Oval" fill="#F5A623" d="M2,4A2,2 0,1,1 6,4A2,2 0,1,1 2,4" class="GKIqJKCd_117"></path>
                </g>
                <g id="Bus-Stop-Copy-20" transform="translate(210.000000, 79.000000)">
                    <path id="Oval" fill="#FFFFFF" d="M0,4A4,4 0,1,1 8,4A4,4 0,1,1 0,4" class="GKIqJKCd_118"></path>
                    <path id="Oval" fill="#F5A623" d="M2,4A2,2 0,1,1 6,4A2,2 0,1,1 2,4" class="GKIqJKCd_119"></path>
                </g>
                <g id="Bus-Stop-Copy-21" transform="translate(230.000000, 85.000000)">
                    <path id="Oval" fill="#FFFFFF" d="M0,4A4,4 0,1,1 8,4A4,4 0,1,1 0,4" class="GKIqJKCd_120"></path>
                    <path id="Oval" fill="#F5A623" d="M2,4A2,2 0,1,1 6,4A2,2 0,1,1 2,4" class="GKIqJKCd_121"></path>
                </g>
                <g id="Bus-Stop-Copy-22" transform="translate(242.000000, 100.000000)">
                    <path id="Oval" fill="#FFFFFF" d="M0,4A4,4 0,1,1 8,4A4,4 0,1,1 0,4" class="GKIqJKCd_122"></path>
                    <path id="Oval" fill="#F5A623" d="M2,4A2,2 0,1,1 6,4A2,2 0,1,1 2,4" class="GKIqJKCd_123"></path>
                </g>
                <g id="Bus-Stop-Copy-23" transform="translate(268.000000, 109.000000)">
                    <path id="Oval" fill="#FFFFFF" d="M0,4A4,4 0,1,1 8,4A4,4 0,1,1 0,4" class="GKIqJKCd_124"></path>
                    <path id="Oval" fill="#EB0000" d="M2,4A2,2 0,1,1 6,4A2,2 0,1,1 2,4" class="GKIqJKCd_125"></path>
                </g>
                <g id="Bus-Stop-Copy-24" transform="translate(291.000000, 128.000000)">
                    <path id="Oval" fill="#FFFFFF" d="M0,4A4,4 0,1,1 8,4A4,4 0,1,1 0,4" class="GKIqJKCd_126"></path>
                    <path id="Oval" fill="#EB0000" d="M2,4A2,2 0,1,1 6,4A2,2 0,1,1 2,4" class="GKIqJKCd_127"></path>
                </g>
                <g id="Bus-Stop-Copy-25" transform="translate(299.000000, 137.000000)">
                    <path id="Oval" fill="#FFFFFF" d="M0,4A4,4 0,1,1 8,4A4,4 0,1,1 0,4" class="GKIqJKCd_128"></path>
                    <path id="Oval" fill="#EB0000" d="M2,4A2,2 0,1,1 6,4A2,2 0,1,1 2,4" class="GKIqJKCd_129"></path>
                </g>
                <g id="Bus-Stop-Copy">
                    <path id="Oval" fill="#FFFFFF" d="M0,4A4,4 0,1,1 8,4A4,4 0,1,1 0,4" class="GKIqJKCd_130"></path>
                    <path id="Oval" fill="#321FFD" d="M2,4A2,2 0,1,1 6,4A2,2 0,1,1 2,4" class="GKIqJKCd_131"></path>
                </g>
                <g id="Bus-Stop-Copy-2" transform="translate(24.000000, 11.000000)">
                    <path id="Oval" fill="#FFFFFF" d="M0,4A4,4 0,1,1 8,4A4,4 0,1,1 0,4" class="GKIqJKCd_132"></path>
                    <path id="Oval" fill="#321FFD" d="M2,4A2,2 0,1,1 6,4A2,2 0,1,1 2,4" class="GKIqJKCd_133"></path>
                </g>
            </g>
        </g>
    </g>
<style>.GKIqJKCd_0{stroke-dasharray:771 773;stroke-dashoffset:772;}.start .GKIqJKCd_0{animation:GKIqJKCd_draw 2000ms linear 0ms forwards;}.GKIqJKCd_1{stroke-dasharray:204 206;stroke-dashoffset:205;}.start .GKIqJKCd_1{animation:GKIqJKCd_draw 2000ms linear 7ms forwards;}.GKIqJKCd_2{stroke-dasharray:96 98;stroke-dashoffset:97;}.start .GKIqJKCd_2{animation:GKIqJKCd_draw 2000ms linear 15ms forwards;}.GKIqJKCd_3{stroke-dasharray:133 135;stroke-dashoffset:134;}.start .GKIqJKCd_3{animation:GKIqJKCd_draw 2000ms linear 22ms forwards;}.GKIqJKCd_4{stroke-dasharray:57 59;stroke-dashoffset:58;}.start .GKIqJKCd_4{animation:GKIqJKCd_draw 2000ms linear 30ms forwards;}.GKIqJKCd_5{stroke-dasharray:50 52;stroke-dashoffset:51;}.start .GKIqJKCd_5{animation:GKIqJKCd_draw 2000ms linear 37ms forwards;}.GKIqJKCd_6{stroke-dasharray:30 32;stroke-dashoffset:31;}.start .GKIqJKCd_6{animation:GKIqJKCd_draw 2000ms linear 45ms forwards;}.GKIqJKCd_7{stroke-dasharray:369 371;stroke-dashoffset:370;}.start .GKIqJKCd_7{animation:GKIqJKCd_draw 2000ms linear 52ms forwards;}.GKIqJKCd_8{stroke-dasharray:383 385;stroke-dashoffset:384;}.start .GKIqJKCd_8{animation:GKIqJKCd_draw 2000ms linear 60ms forwards;}.GKIqJKCd_9{stroke-dasharray:22 24;stroke-dashoffset:23;}.start .GKIqJKCd_9{animation:GKIqJKCd_draw 2000ms linear 67ms forwards;}.GKIqJKCd_10{stroke-dasharray:34 36;stroke-dashoffset:35;}.start .GKIqJKCd_10{animation:GKIqJKCd_draw 2000ms linear 75ms forwards;}.GKIqJKCd_11{stroke-dasharray:79 81;stroke-dashoffset:80;}.start .GKIqJKCd_11{animation:GKIqJKCd_draw 2000ms linear 82ms forwards;}.GKIqJKCd_12{stroke-dasharray:13 15;stroke-dashoffset:14;}.start .GKIqJKCd_12{animation:GKIqJKCd_draw 2000ms linear 90ms forwards;}.GKIqJKCd_13{stroke-dasharray:34 36;stroke-dashoffset:35;}.start .GKIqJKCd_13{animation:GKIqJKCd_draw 2000ms linear 97ms forwards;}.GKIqJKCd_14{stroke-dasharray:37 39;stroke-dashoffset:38;}.start .GKIqJKCd_14{animation:GKIqJKCd_draw 2000ms linear 105ms forwards;}.GKIqJKCd_15{stroke-dasharray:27 29;stroke-dashoffset:28;}.start .GKIqJKCd_15{animation:GKIqJKCd_draw 2000ms linear 112ms forwards;}.GKIqJKCd_16{stroke-dasharray:13 15;stroke-dashoffset:14;}.start .GKIqJKCd_16{animation:GKIqJKCd_draw 2000ms linear 120ms forwards;}.GKIqJKCd_17{stroke-dasharray:18 20;stroke-dashoffset:19;}.start .GKIqJKCd_17{animation:GKIqJKCd_draw 2000ms linear 127ms forwards;}.GKIqJKCd_18{stroke-dasharray:6 8;stroke-dashoffset:7;}.start .GKIqJKCd_18{animation:GKIqJKCd_draw 2000ms linear 135ms forwards;}.GKIqJKCd_19{stroke-dasharray:13 15;stroke-dashoffset:14;}.start .GKIqJKCd_19{animation:GKIqJKCd_draw 2000ms linear 142ms forwards;}.GKIqJKCd_20{stroke-dasharray:30 32;stroke-dashoffset:31;}.start .GKIqJKCd_20{animation:GKIqJKCd_draw 2000ms linear 150ms forwards;}.GKIqJKCd_21{stroke-dasharray:57 59;stroke-dashoffset:58;}.start .GKIqJKCd_21{animation:GKIqJKCd_draw 2000ms linear 157ms forwards;}.GKIqJKCd_22{stroke-dasharray:54 56;stroke-dashoffset:55;}.start .GKIqJKCd_22{animation:GKIqJKCd_draw 2000ms linear 165ms forwards;}.GKIqJKCd_23{stroke-dasharray:51 53;stroke-dashoffset:52;}.start .GKIqJKCd_23{animation:GKIqJKCd_draw 2000ms linear 172ms forwards;}.GKIqJKCd_24{stroke-dasharray:16 18;stroke-dashoffset:17;}.start .GKIqJKCd_24{animation:GKIqJKCd_draw 2000ms linear 180ms forwards;}.GKIqJKCd_25{stroke-dasharray:333 335;stroke-dashoffset:334;}.start .GKIqJKCd_25{animation:GKIqJKCd_draw 2000ms linear 187ms forwards;}.GKIqJKCd_26{stroke-dasharray:8 10;stroke-dashoffset:9;}.start .GKIqJKCd_26{animation:GKIqJKCd_draw 2000ms linear 195ms forwards;}.GKIqJKCd_27{stroke-dasharray:4 6;stroke-dashoffset:5;}.start .GKIqJKCd_27{animation:GKIqJKCd_draw 2000ms linear 203ms forwards;}.GKIqJKCd_28{stroke-dasharray:12 14;stroke-dashoffset:13;}.start .GKIqJKCd_28{animation:GKIqJKCd_draw 2000ms linear 210ms forwards;}.GKIqJKCd_29{stroke-dasharray:14 16;stroke-dashoffset:15;}.start .GKIqJKCd_29{animation:GKIqJKCd_draw 2000ms linear 218ms forwards;}.GKIqJKCd_30{stroke-dasharray:56 58;stroke-dashoffset:57;}.start .GKIqJKCd_30{animation:GKIqJKCd_draw 2000ms linear 225ms forwards;}.GKIqJKCd_31{stroke-dasharray:101 103;stroke-dashoffset:102;}.start .GKIqJKCd_31{animation:GKIqJKCd_draw 2000ms linear 233ms forwards;}.GKIqJKCd_32{stroke-dasharray:122 124;stroke-dashoffset:123;}.start .GKIqJKCd_32{animation:GKIqJKCd_draw 2000ms linear 240ms forwards;}.GKIqJKCd_33{stroke-dasharray:79 81;stroke-dashoffset:80;}.start .GKIqJKCd_33{animation:GKIqJKCd_draw 2000ms linear 248ms forwards;}.GKIqJKCd_34{stroke-dasharray:114 116;stroke-dashoffset:115;}.start .GKIqJKCd_34{animation:GKIqJKCd_draw 2000ms linear 255ms forwards;}.GKIqJKCd_35{stroke-dasharray:123 125;stroke-dashoffset:124;}.start .GKIqJKCd_35{animation:GKIqJKCd_draw 2000ms linear 263ms forwards;}.GKIqJKCd_36{stroke-dasharray:264 266;stroke-dashoffset:265;}.start .GKIqJKCd_36{animation:GKIqJKCd_draw 2000ms linear 270ms forwards;}.GKIqJKCd_37{stroke-dasharray:254 256;stroke-dashoffset:255;}.start .GKIqJKCd_37{animation:GKIqJKCd_draw 2000ms linear 278ms forwards;}.GKIqJKCd_38{stroke-dasharray:163 165;stroke-dashoffset:164;}.start .GKIqJKCd_38{animation:GKIqJKCd_draw 2000ms linear 285ms forwards;}.GKIqJKCd_39{stroke-dasharray:628 630;stroke-dashoffset:629;}.start .GKIqJKCd_39{animation:GKIqJKCd_draw 2000ms linear 293ms forwards;}.GKIqJKCd_40{stroke-dasharray:269 271;stroke-dashoffset:270;}.start .GKIqJKCd_40{animation:GKIqJKCd_draw 2000ms linear 300ms forwards;}.GKIqJKCd_41{stroke-dasharray:280 282;stroke-dashoffset:281;}.start .GKIqJKCd_41{animation:GKIqJKCd_draw 2000ms linear 308ms forwards;}.GKIqJKCd_42{stroke-dasharray:371 373;stroke-dashoffset:372;}.start .GKIqJKCd_42{animation:GKIqJKCd_draw 2000ms linear 315ms forwards;}.GKIqJKCd_43{stroke-dasharray:125 127;stroke-dashoffset:126;}.start .GKIqJKCd_43{animation:GKIqJKCd_draw 2000ms linear 323ms forwards;}.GKIqJKCd_44{stroke-dasharray:16 18;stroke-dashoffset:17;}.start .GKIqJKCd_44{animation:GKIqJKCd_draw 2000ms linear 330ms forwards;}.GKIqJKCd_45{stroke-dasharray:2 4;stroke-dashoffset:3;}.start .GKIqJKCd_45{animation:GKIqJKCd_draw 2000ms linear 338ms forwards;}.GKIqJKCd_46{stroke-dasharray:318 320;stroke-dashoffset:319;}.start .GKIqJKCd_46{animation:GKIqJKCd_draw 2000ms linear 345ms forwards;}.GKIqJKCd_47{stroke-dasharray:203 205;stroke-dashoffset:204;}.start .GKIqJKCd_47{animation:GKIqJKCd_draw 2000ms linear 353ms forwards;}.GKIqJKCd_48{stroke-dasharray:86 88;stroke-dashoffset:87;}.start .GKIqJKCd_48{animation:GKIqJKCd_draw 2000ms linear 360ms forwards;}.GKIqJKCd_49{stroke-dasharray:11 13;stroke-dashoffset:12;}.start .GKIqJKCd_49{animation:GKIqJKCd_draw 2000ms linear 368ms forwards;}.GKIqJKCd_50{stroke-dasharray:16 18;stroke-dashoffset:17;}.start .GKIqJKCd_50{animation:GKIqJKCd_draw 2000ms linear 375ms forwards;}.GKIqJKCd_51{stroke-dasharray:187 189;stroke-dashoffset:188;}.start .GKIqJKCd_51{animation:GKIqJKCd_draw 2000ms linear 383ms forwards;}.GKIqJKCd_52{stroke-dasharray:519 521;stroke-dashoffset:520;}.start .GKIqJKCd_52{animation:GKIqJKCd_draw 2000ms linear 390ms forwards;}.GKIqJKCd_53{stroke-dasharray:266 268;stroke-dashoffset:267;}.start .GKIqJKCd_53{animation:GKIqJKCd_draw 2000ms linear 398ms forwards;}.GKIqJKCd_54{stroke-dasharray:359 361;stroke-dashoffset:360;}.start .GKIqJKCd_54{animation:GKIqJKCd_draw 2000ms linear 406ms forwards;}.GKIqJKCd_55{stroke-dasharray:20 22;stroke-dashoffset:21;}.start .GKIqJKCd_55{animation:GKIqJKCd_draw 2000ms linear 413ms forwards;}.GKIqJKCd_56{stroke-dasharray:570 572;stroke-dashoffset:571;}.start .GKIqJKCd_56{animation:GKIqJKCd_draw 2000ms linear 421ms forwards;}.GKIqJKCd_57{stroke-dasharray:555 557;stroke-dashoffset:556;}.start .GKIqJKCd_57{animation:GKIqJKCd_draw 2000ms linear 428ms forwards;}.GKIqJKCd_58{stroke-dasharray:89 91;stroke-dashoffset:90;}.start .GKIqJKCd_58{animation:GKIqJKCd_draw 2000ms linear 436ms forwards;}.GKIqJKCd_59{stroke-dasharray:62 64;stroke-dashoffset:63;}.start .GKIqJKCd_59{animation:GKIqJKCd_draw 2000ms linear 443ms forwards;}.GKIqJKCd_60{stroke-dasharray:51 53;stroke-dashoffset:52;}.start .GKIqJKCd_60{animation:GKIqJKCd_draw 2000ms linear 451ms forwards;}.GKIqJKCd_61{stroke-dasharray:69 71;stroke-dashoffset:70;}.start .GKIqJKCd_61{animation:GKIqJKCd_draw 2000ms linear 458ms forwards;}.GKIqJKCd_62{stroke-dasharray:65 67;stroke-dashoffset:66;}.start .GKIqJKCd_62{animation:GKIqJKCd_draw 2000ms linear 466ms forwards;}.GKIqJKCd_63{stroke-dasharray:66 68;stroke-dashoffset:67;}.start .GKIqJKCd_63{animation:GKIqJKCd_draw 2000ms linear 473ms forwards;}.GKIqJKCd_64{stroke-dasharray:54 56;stroke-dashoffset:55;}.start .GKIqJKCd_64{animation:GKIqJKCd_draw 2000ms linear 481ms forwards;}.GKIqJKCd_65{stroke-dasharray:80 82;stroke-dashoffset:81;}.start .GKIqJKCd_65{animation:GKIqJKCd_draw 2000ms linear 488ms forwards;}.GKIqJKCd_66{stroke-dasharray:126 128;stroke-dashoffset:127;}.start .GKIqJKCd_66{animation:GKIqJKCd_draw 2000ms linear 496ms forwards;}.GKIqJKCd_67{stroke-dasharray:80 82;stroke-dashoffset:81;}.start .GKIqJKCd_67{animation:GKIqJKCd_draw 2000ms linear 503ms forwards;}.GKIqJKCd_68{stroke-dasharray:60 62;stroke-dashoffset:61;}.start .GKIqJKCd_68{animation:GKIqJKCd_draw 2000ms linear 511ms forwards;}.GKIqJKCd_69{stroke-dasharray:110 112;stroke-dashoffset:111;}.start .GKIqJKCd_69{animation:GKIqJKCd_draw 2000ms linear 518ms forwards;}.GKIqJKCd_70{stroke-dasharray:59 61;stroke-dashoffset:60;}.start .GKIqJKCd_70{animation:GKIqJKCd_draw 2000ms linear 526ms forwards;}.GKIqJKCd_71{stroke-dasharray:18 20;stroke-dashoffset:19;}.start .GKIqJKCd_71{animation:GKIqJKCd_draw 2000ms linear 533ms forwards;}.GKIqJKCd_72{stroke-dasharray:30 32;stroke-dashoffset:31;}.start .GKIqJKCd_72{animation:GKIqJKCd_draw 2000ms linear 541ms forwards;}.GKIqJKCd_73{stroke-dasharray:102 104;stroke-dashoffset:103;}.start .GKIqJKCd_73{animation:GKIqJKCd_draw 2000ms linear 548ms forwards;}.GKIqJKCd_74{stroke-dasharray:51 53;stroke-dashoffset:52;}.start .GKIqJKCd_74{animation:GKIqJKCd_draw 2000ms linear 556ms forwards;}.GKIqJKCd_75{stroke-dasharray:130 132;stroke-dashoffset:131;}.start .GKIqJKCd_75{animation:GKIqJKCd_draw 2000ms linear 563ms forwards;}.GKIqJKCd_76{stroke-dasharray:57 59;stroke-dashoffset:58;}.start .GKIqJKCd_76{animation:GKIqJKCd_draw 2000ms linear 571ms forwards;}.GKIqJKCd_77{stroke-dasharray:42 44;stroke-dashoffset:43;}.start .GKIqJKCd_77{animation:GKIqJKCd_draw 2000ms linear 578ms forwards;}.GKIqJKCd_78{stroke-dasharray:25 27;stroke-dashoffset:26;}.start .GKIqJKCd_78{animation:GKIqJKCd_draw 2000ms linear 586ms forwards;}.GKIqJKCd_79{stroke-dasharray:55 57;stroke-dashoffset:56;}.start .GKIqJKCd_79{animation:GKIqJKCd_draw 2000ms linear 593ms forwards;}.GKIqJKCd_80{stroke-dasharray:45 47;stroke-dashoffset:46;}.start .GKIqJKCd_80{animation:GKIqJKCd_draw 2000ms linear 601ms forwards;}.GKIqJKCd_81{stroke-dasharray:173 175;stroke-dashoffset:174;}.start .GKIqJKCd_81{animation:GKIqJKCd_draw 2000ms linear 609ms forwards;}.GKIqJKCd_82{stroke-dasharray:11 13;stroke-dashoffset:12;}.start .GKIqJKCd_82{animation:GKIqJKCd_draw 2000ms linear 616ms forwards;}.GKIqJKCd_83{stroke-dasharray:5 7;stroke-dashoffset:6;}.start .GKIqJKCd_83{animation:GKIqJKCd_draw 2000ms linear 624ms forwards;}.GKIqJKCd_84{stroke-dasharray:49 51;stroke-dashoffset:50;}.start .GKIqJKCd_84{animation:GKIqJKCd_draw 2000ms linear 631ms forwards;}.GKIqJKCd_85{stroke-dasharray:148 150;stroke-dashoffset:149;}.start .GKIqJKCd_85{animation:GKIqJKCd_draw 2000ms linear 639ms forwards;}.GKIqJKCd_86{stroke-dasharray:32 34;stroke-dashoffset:33;}.start .GKIqJKCd_86{animation:GKIqJKCd_draw 2000ms linear 646ms forwards;}.GKIqJKCd_87{stroke-dasharray:17 19;stroke-dashoffset:18;}.start .GKIqJKCd_87{animation:GKIqJKCd_draw 2000ms linear 654ms forwards;}.GKIqJKCd_88{stroke-dasharray:20 22;stroke-dashoffset:21;}.start .GKIqJKCd_88{animation:GKIqJKCd_draw 2000ms linear 661ms forwards;}.GKIqJKCd_89{stroke-dasharray:57 59;stroke-dashoffset:58;}.start .GKIqJKCd_89{animation:GKIqJKCd_draw 2000ms linear 669ms forwards;}.GKIqJKCd_90{stroke-dasharray:106 108;stroke-dashoffset:107;}.start .GKIqJKCd_90{animation:GKIqJKCd_draw 2000ms linear 676ms forwards;}.GKIqJKCd_91{stroke-dasharray:95 97;stroke-dashoffset:96;}.start .GKIqJKCd_91{animation:GKIqJKCd_draw 2000ms linear 684ms forwards;}.GKIqJKCd_92{stroke-dasharray:79 81;stroke-dashoffset:80;}.start .GKIqJKCd_92{animation:GKIqJKCd_draw 2000ms linear 691ms forwards;}.GKIqJKCd_93{stroke-dasharray:52 54;stroke-dashoffset:53;}.start .GKIqJKCd_93{animation:GKIqJKCd_draw 2000ms linear 699ms forwards;}.GKIqJKCd_94{stroke-dasharray:45 47;stroke-dashoffset:46;}.start .GKIqJKCd_94{animation:GKIqJKCd_draw 2000ms linear 706ms forwards;}.GKIqJKCd_95{stroke-dasharray:42 44;stroke-dashoffset:43;}.start .GKIqJKCd_95{animation:GKIqJKCd_draw 2000ms linear 714ms forwards;}.GKIqJKCd_96{stroke-dasharray:145 147;stroke-dashoffset:146;}.start .GKIqJKCd_96{animation:GKIqJKCd_draw 2000ms linear 721ms forwards;}.GKIqJKCd_97{stroke-dasharray:87 89;stroke-dashoffset:88;}.start .GKIqJKCd_97{animation:GKIqJKCd_draw 2000ms linear 729ms forwards;}.GKIqJKCd_98{stroke-dasharray:164 166;stroke-dashoffset:165;}.start .GKIqJKCd_98{animation:GKIqJKCd_draw 2000ms linear 736ms forwards;}.GKIqJKCd_99{stroke-dasharray:88 90;stroke-dashoffset:89;}.start .GKIqJKCd_99{animation:GKIqJKCd_draw 2000ms linear 744ms forwards;}.GKIqJKCd_100{stroke-dasharray:79 81;stroke-dashoffset:80;}.start .GKIqJKCd_100{animation:GKIqJKCd_draw 2000ms linear 751ms forwards;}.GKIqJKCd_101{stroke-dasharray:64 66;stroke-dashoffset:65;}.start .GKIqJKCd_101{animation:GKIqJKCd_draw 2000ms linear 759ms forwards;}.GKIqJKCd_102{stroke-dasharray:71 73;stroke-dashoffset:72;}.start .GKIqJKCd_102{animation:GKIqJKCd_draw 2000ms linear 766ms forwards;}.GKIqJKCd_103{stroke-dasharray:19 21;stroke-dashoffset:20;}.start .GKIqJKCd_103{animation:GKIqJKCd_draw 2000ms linear 774ms forwards;}.GKIqJKCd_104{stroke-dasharray:13 15;stroke-dashoffset:14;}.start .GKIqJKCd_104{animation:GKIqJKCd_draw 2000ms linear 781ms forwards;}.GKIqJKCd_105{stroke-dasharray:118 120;stroke-dashoffset:119;}.start .GKIqJKCd_105{animation:GKIqJKCd_draw 2000ms linear 789ms forwards;}.GKIqJKCd_106{stroke-dasharray:234 236;stroke-dashoffset:235;}.start .GKIqJKCd_106{animation:GKIqJKCd_draw 2000ms linear 796ms forwards;}.GKIqJKCd_107{stroke-dasharray:390 392;stroke-dashoffset:391;}.start .GKIqJKCd_107{animation:GKIqJKCd_draw 2000ms linear 804ms forwards;}.GKIqJKCd_108{stroke-dasharray:56 58;stroke-dashoffset:57;}.start .GKIqJKCd_108{animation:GKIqJKCd_draw 2000ms linear 812ms forwards;}.GKIqJKCd_109{stroke-dasharray:393 395;stroke-dashoffset:394;}.start .GKIqJKCd_109{animation:GKIqJKCd_draw 2000ms linear 819ms forwards;}.GKIqJKCd_110{stroke-dasharray:26 28;stroke-dashoffset:27;}.start .GKIqJKCd_110{animation:GKIqJKCd_draw 2000ms linear 827ms forwards;}.GKIqJKCd_111{stroke-dasharray:13 15;stroke-dashoffset:14;}.start .GKIqJKCd_111{animation:GKIqJKCd_draw 2000ms linear 834ms forwards;}.GKIqJKCd_112{stroke-dasharray:26 28;stroke-dashoffset:27;}.start .GKIqJKCd_112{animation:GKIqJKCd_draw 2000ms linear 842ms forwards;}.GKIqJKCd_113{stroke-dasharray:13 15;stroke-dashoffset:14;}.start .GKIqJKCd_113{animation:GKIqJKCd_draw 2000ms linear 849ms forwards;}.GKIqJKCd_114{stroke-dasharray:26 28;stroke-dashoffset:27;}.start .GKIqJKCd_114{animation:GKIqJKCd_draw 2000ms linear 857ms forwards;}.GKIqJKCd_115{stroke-dasharray:13 15;stroke-dashoffset:14;}.start .GKIqJKCd_115{animation:GKIqJKCd_draw 2000ms linear 864ms forwards;}.GKIqJKCd_116{stroke-dasharray:26 28;stroke-dashoffset:27;}.start .GKIqJKCd_116{animation:GKIqJKCd_draw 2000ms linear 872ms forwards;}.GKIqJKCd_117{stroke-dasharray:13 15;stroke-dashoffset:14;}.start .GKIqJKCd_117{animation:GKIqJKCd_draw 2000ms linear 879ms forwards;}.GKIqJKCd_118{stroke-dasharray:26 28;stroke-dashoffset:27;}.start .GKIqJKCd_118{animation:GKIqJKCd_draw 2000ms linear 887ms forwards;}.GKIqJKCd_119{stroke-dasharray:13 15;stroke-dashoffset:14;}.start .GKIqJKCd_119{animation:GKIqJKCd_draw 2000ms linear 894ms forwards;}.GKIqJKCd_120{stroke-dasharray:26 28;stroke-dashoffset:27;}.start .GKIqJKCd_120{animation:GKIqJKCd_draw 2000ms linear 902ms forwards;}.GKIqJKCd_121{stroke-dasharray:13 15;stroke-dashoffset:14;}.start .GKIqJKCd_121{animation:GKIqJKCd_draw 2000ms linear 909ms forwards;}.GKIqJKCd_122{stroke-dasharray:26 28;stroke-dashoffset:27;}.start .GKIqJKCd_122{animation:GKIqJKCd_draw 2000ms linear 917ms forwards;}.GKIqJKCd_123{stroke-dasharray:13 15;stroke-dashoffset:14;}.start .GKIqJKCd_123{animation:GKIqJKCd_draw 2000ms linear 924ms forwards;}.GKIqJKCd_124{stroke-dasharray:26 28;stroke-dashoffset:27;}.start .GKIqJKCd_124{animation:GKIqJKCd_draw 2000ms linear 932ms forwards;}.GKIqJKCd_125{stroke-dasharray:13 15;stroke-dashoffset:14;}.start .GKIqJKCd_125{animation:GKIqJKCd_draw 2000ms linear 939ms forwards;}.GKIqJKCd_126{stroke-dasharray:26 28;stroke-dashoffset:27;}.start .GKIqJKCd_126{animation:GKIqJKCd_draw 2000ms linear 947ms forwards;}.GKIqJKCd_127{stroke-dasharray:13 15;stroke-dashoffset:14;}.start .GKIqJKCd_127{animation:GKIqJKCd_draw 2000ms linear 954ms forwards;}.GKIqJKCd_128{stroke-dasharray:26 28;stroke-dashoffset:27;}.start .GKIqJKCd_128{animation:GKIqJKCd_draw 2000ms linear 962ms forwards;}.GKIqJKCd_129{stroke-dasharray:13 15;stroke-dashoffset:14;}.start .GKIqJKCd_129{animation:GKIqJKCd_draw 2000ms linear 969ms forwards;}.GKIqJKCd_130{stroke-dasharray:26 28;stroke-dashoffset:27;}.start .GKIqJKCd_130{animation:GKIqJKCd_draw 2000ms linear 977ms forwards;}.GKIqJKCd_131{stroke-dasharray:13 15;stroke-dashoffset:14;}.start .GKIqJKCd_131{animation:GKIqJKCd_draw 2000ms linear 984ms forwards;}.GKIqJKCd_132{stroke-dasharray:26 28;stroke-dashoffset:27;}.start .GKIqJKCd_132{animation:GKIqJKCd_draw 2000ms linear 992ms forwards;}.GKIqJKCd_133{stroke-dasharray:13 15;stroke-dashoffset:14;}.start .GKIqJKCd_133{animation:GKIqJKCd_draw 2000ms linear 1000ms forwards;}@keyframes GKIqJKCd_draw{100%{stroke-dashoffset:0;}}@keyframes GKIqJKCd_fade{0%{stroke-opacity:1;}94.44444444444444%{stroke-opacity:1;}100%{stroke-opacity:0;}}</style></svg>